<svg width="3810" height="9452" viewBox="0 0 3810 9452" fill="none" xmlns="http://www.w3.org/2000/svg">
<path d="M3168.28 9184.6C3120.95 8443.6 2645.66 7738.98 2145.11 7085.95C1644.57 6432.93 1095.32 5780.43 865.559 5048.93C672.019 4432.3 723.665 3782.94 1011.03 3225.34C1306.92 2650.97 1832.88 2190.89 2290.13 1699.39C2747.38 1207.88 3154.95 642.53 3154.82 0.366402M3133.34 9186.03C3101.39 8451.93 2643.7 7747.45 2154.05 7094.54C1664.4 6441.64 1121.83 5789.56 889.691 5061.49C703.33 4479.78 727.36 3870.1 961.101 3331.91C976.098 3297.7 991.476 3263.96 1008.1 3230.36C1151.82 2938.5 1355.32 2674.46 1586.51 2425.5C1813.63 2180.18 2064.2 1950.66 2296.76 1710.59C2768.07 1226.65 3180.4 654.431 3175.21 7.48474M3098.37 9187.87C3082.2 8460.73 2641.29 7756.27 2162.99 7103.13C1684.69 6449.98 1148.76 5798.74 913.818 5074.06C722.958 4490.95 736.193 3879.92 960.206 3337.61C974.373 3303.29 989.37 3269.08 1005.61 3235.03C1144.13 2940.03 1344.24 2671.41 1579.52 2423.8C1809.45 2180.07 2065.38 1956.62 2303.38 1721.79C2787.15 1244.39 3205.87 665.92 3196.01 14.654M3063.43 9189.3C3063.05 8469.11 2639.33 7764.74 2172.37 7111.36C1705.42 6457.98 1176.13 5807.57 937.985 5086.21C742.625 4501.71 745.065 3889.32 958.936 3342.84C972.722 3308.06 986.923 3273.34 1002.34 3239.18C1135.66 2941.04 1332.75 2668.31 1571.77 2421.16C1804.5 2179.04 2066.19 1962.11 2309.24 1732.06C2806.27 1261.72 3230.56 676.895 3216.05 20.8989M3028.5 9190.73C3043.45 8477.86 2636.96 7773.15 2181.31 7119.94C1725.67 6466.74 1204.79 5816.14 962.117 5098.78C763.572 4512.22 753.903 3899.14 958.047 3348.54C971.002 3313.66 984.821 3278.47 999.403 3244.21C1127.5 2943.34 1321.19 2666.03 1563.92 2419.77C1799.45 2179.23 2066.89 1968.84 2315.01 1743.57C2825.3 1280.28 3255.14 689.101 3235.54 28.7341M2993.56 9192.15C3024.29 8486.24 2634.99 7781.62 2190.28 7128.12C1745.57 6474.62 1231.78 5824.5 985.897 5110.47C783.302 4522.16 762.422 3907.68 956.805 3353.36C968.964 3317.96 982.368 3282.72 996.569 3248C1119.48 2943.99 1310.53 2663.04 1556.57 2417.19C1795.3 2178.71 2068.49 1974.84 2321.69 1753.95C2845.24 1297.72 3280.65 700.18 3256.4 35.083M2958.59 9193.99C3004.69 8494.99 2632.59 7790.44 2199.22 7136.71C1765.86 6482.97 1259.13 5833.73 1010.03 5123.03C803.384 4532.97 771.26 3917.5 955.917 3359.06C967.66 3323.61 980.268 3287.85 993.672 3252.62C1111.38 2945.46 1299.01 2660.35 1549.2 2415.02C1790.73 2178.14 2069.67 1980.8 2327.94 1764.69C2864.72 1315.92 3305.71 711.618 3276.83 41.7909M2923.65 9195.42C2985.54 8503.37 2630.63 7798.91 2208.58 7145.35C1786.52 6491.79 1286.47 5842.97 1034.57 5135.65C823.845 4544.25 780.511 3927.37 955.025 3364.75C965.972 3328.79 978.165 3292.98 991.154 3257.69C1103.67 2947.4 1288.28 2658.18 1542.18 2413.72C1786.48 2178.85 2071.21 1987.63 2334.49 1776.71C2884.95 1335.05 3330.67 724.289 3297.14 49.7318M2888.71 9196.85C2966.39 8511.76 2628.22 7807.73 2217.55 7153.52C1806.88 6499.31 1313.47 5851.33 1058.33 5147.75C843.131 4554.55 788.968 3936.72 953.755 3369.99C964.287 3333.97 975.683 3297.65 987.875 3261.84C1095.2 2948.41 1276.41 2654.61 1534.43 2411.09C1781.53 2177.82 2072.43 1993.17 2340.36 1786.99C2904.48 1352.43 3355.39 734.853 3317.19 55.9754M2853.77 9198.28C2946.82 8520.09 2626.26 7816.2 2226.52 7161.7C1826.78 6507.2 1340.84 5860.15 1082.49 5159.91C863.244 4564.95 797.836 3946.13 952.896 3375.27C962.632 3338.74 973.613 3302.37 985.424 3266.1C1087.52 2949.94 1265.34 2651.57 1527.47 2408.98C1777.38 2177.3 2073.99 1999.59 2347.43 1797.83C2925.2 1370.79 3381.28 746.394 3337.99 63.1455M2818.83 9199.71C2927.67 8528.47 2623.88 7824.61 2235.91 7169.93C1847.93 6515.24 1368.22 5868.98 1106.69 5171.65C882.941 4575.3 806.738 3955.13 951.656 3380.09C960.976 3343.51 971.16 3306.62 982.141 3270.25C1079.46 2951 1253.84 2648.47 1519.72 2406.34C1772.42 2176.26 2075.21 2005.14 2353.29 1808.1C2944.7 1388.58 3405.96 757.369 3358.02 69.39M2783.87 9201.55C2908.07 8537.22 2621.89 7833.49 2244.81 7178.92C1867.73 6524.36 1395.11 5878.57 1130.78 5184.63C902.99 4586.52 815.958 3965.41 950.733 3386.2C959.257 3349.1 969.027 3312.16 979.626 3275.33C1071.75 2952.94 1242.7 2646.24 1512.69 2405.05C1768.21 2176.56 2077.13 2012.43 2359.88 1819.71C2964.97 1407.3 3431.37 769.679 3378.79 76.9701M2748.93 9202.98C2888.88 8546.01 2619.52 7841.9 2253.78 7187.1C1888.05 6532.3 1422.08 5887.34 1154.95 5196.78C922.69 4596.88 824.828 3974.82 949.877 3391.48C957.986 3354.34 966.544 3316.83 976.762 3279.53C1063.69 2954.01 1231.63 2643.19 1505.32 2402.88C1763.64 2175.99 2078.73 2018.44 2366.13 1830.45C2985.27 1425.61 3456.44 781.117 3398.8 83.6258M2713.99 9204.41C2869.73 8554.4 2617.56 7850.37 2263.17 7195.33C1908.78 6540.29 1449.49 5895.75 1179.11 5208.94C942.77 4607.69 833.698 3984.23 948.604 3396.72C955.916 3359.06 964.059 3321.5 973.447 3284.1C1055.18 2955.43 1219.69 2640.45 1497.53 2400.66C1758.66 2175.37 2079.88 2024.8 2372.37 1841.19C3005.15 1443.86 3481.5 792.554 3419.22 90.3329M2679.05 9205.84C2850.16 8562.73 2615.18 7858.78 2272.11 7203.92C1929.03 6549.05 1476.41 5904.94 1203.24 5221.5C962.435 4618.45 842.567 3993.64 947.712 3402.41C954.194 3364.65 961.956 3326.63 970.963 3288.76C1047.47 2957.37 1208.58 2637.82 1490.54 2398.96C1754.47 2175.26 2081.44 2031.22 2378.99 1852.39C3025.79 1463.04 3506.98 804.044 3440.02 97.5035M2644.11 9207.27C2831.01 8571.12 2613.22 7867.25 2281.08 7212.09C1948.93 6556.94 1503.37 5913.71 1227.03 5233.19C981.717 4628.75 851.055 4002.58 946.473 3407.24C952.574 3369.01 959.505 3330.88 967.715 3292.5C1039.03 2957.97 1197.16 2633.9 1482.82 2395.91C1749.55 2173.81 2082.66 2036.77 2384.89 1862.26C3045.33 1480.43 3531.69 814.609 3459.64 103.697M2609.14 9209.1C2811.41 8579.86 2611.23 7876.12 2290.02 7220.68C1968.8 6565.24 1529.89 5922.84 1251.16 5245.76C1001.38 4639.51 859.893 4012.4 945.584 3412.93C950.854 3374.6 957.404 3336.01 965.199 3297.58C1031.32 2959.91 1186.02 2631.67 1475.8 2394.62C1745.34 2174.11 2084.57 2044.06 2391.48 1873.87C3065.98 1499.61 3557.1 826.919 3480.41 111.277M2574.21 9210.53C2792.25 8588.25 2608.86 7884.54 2299.37 7229.32C1989.89 6574.1 1557.23 5932.07 1275.7 5258.38C1021.43 4650.73 869.145 4022.27 944.695 3418.63C949.583 3379.83 955.303 3341.14 962.302 3302.2C1023.23 2961.38 1174.5 2628.98 1468.43 2392.45C1740.77 2173.54 2086.14 2050.48 2398.14 1884.66C3086.66 1518.38 3582.58 838.409 3501.25 118.037M2539.27 9211.96C2773.1 8596.63 2606.86 7893.41 2308.34 7237.5C2009.82 6581.58 1584.19 5940.85 1299.45 5270.48C1040.71 4661.03 877.597 4031.63 943.419 3423.86C947.477 3384.96 952.816 3345.81 959.399 3306.81C1015.13 2962.85 1162.97 2626.29 1461.02 2390.69C1735.75 2173.33 2088.09 2057.36 2404.34 1895.81C3106.89 1537.5 3607.61 850.257 3521.22 125.103M2503.92 9213.34C2753.12 8604.91 2604.08 7901.77 2316.9 7245.62C2029.73 6589.47 1610.32 5949.51 1323.2 5282.58C1060.38 4671.79 886.054 4040.98 942.149 3429.1C945.826 3389.73 950.334 3350.48 956.121 3310.96C1006.63 2964.28 1151.51 2622.78 1453.24 2388.47C1730.77 2172.7 2089.24 2063.73 2410.17 1906.49C3126.74 1556.17 3631.84 861.592 3541.22 131.759M2468.98 9214.77C2733.96 8613.3 2602.11 7910.24 2326.29 7253.85C2050.46 6597.46 1637.7 5958.34 1347.4 5294.32C1079.7 4681.68 894.956 4049.98 940.909 3433.92C943.756 3394.45 947.882 3354.73 952.873 3314.7C998.186 2964.88 1139.64 2619.22 1445.1 2385.38C1725.44 2171.2 2090.04 2069.22 2415.65 1916.31C3146.24 1573.96 3656.17 871.692 3560.88 137.54M2434.01 9216.61C2714.33 8622.45 2599.71 7919.06 2335.19 7262.85C2070.68 6606.63 1664.18 5967.88 1371.5 5307.3C1099.3 4693.26 903.759 4060.21 939.985 3440.02C942.036 3400.04 945.747 3360.27 950.323 3320.19C990.443 2967.23 1128.47 2617.41 1438.04 2384.49C1721.22 2171.5 2091.92 2076.92 2422.62 1928.38C3167.24 1594.02 3681.97 884.466 3581.58 145.942M2399.07 9218.04C2695.18 8630.84 2597.75 7927.53 2344.16 7271.02C2090.58 6614.52 1691.14 5976.65 1395.66 5319.46C1118.96 4704.02 912.628 4069.62 939.127 3445.31C940.763 3405.28 943.711 3364.58 947.457 3324.4C982.383 2968.29 1117.01 2613.9 1430.71 2381.91C1716.69 2170.52 2093.52 2082.93 2428.9 1938.71C3187.95 1612.38 3707.06 895.492 3602.03 152.239M2364.13 9219.47C2676.03 8639.22 2595.38 7935.94 2353.14 7279.2C2110.9 6622.46 1717.65 5985.78 1419.41 5331.56C1138.25 4714.32 921.12 4078.56 937.477 3450.08C938.316 3409.53 940.849 3368.78 944.213 3328.14C973.945 2968.89 1105.14 2610.33 1422.95 2379.28C1711.32 2169.44 2094.71 2088.89 2434.76 1948.98C3207.8 1631.04 3731.75 906.47 3622.07 158.486M2329.19 9220.89C2656.46 8647.55 2593.41 7944.41 2362.49 7287.84C2131.56 6631.27 1744.58 5994.96 1443.96 5344.18C1157.87 4725.49 930.368 4088.43 936.998 3455.83C937.422 3415.23 938.744 3373.91 941.693 3333.21C966.612 2971.29 1094.45 2607.75 1415.96 2377.58C1707.14 2169.32 2096.65 2095.77 2441.39 1960.18C3228.45 1650.22 3757.19 918.367 3642.46 165.601M2294.26 9222.32C2637.31 8655.94 2591.04 7952.82 2371.46 7296.01C2151.88 6639.21 1771.54 6003.73 1467.74 5355.87C1177.16 4735.79 938.858 4097.38 935.761 3460.65C935.388 3419.54 936.295 3378.17 938.863 3337.01C958.589 2971.95 1082.19 2603.72 1408.62 2375C1702.26 2167.47 2098.64 2102.24 2448.08 1970.56C3249.54 1669.05 3782.7 929.447 3663.33 171.951M2259.28 9224.16C2617.7 8664.68 2589.05 7961.7 2380.4 7304.6C2171.75 6647.5 1798.05 6012.86 1491.87 5368.43C1196.79 4746.96 947.692 4107.2 934.453 3466.29C933.665 3425.13 933.776 3383.24 935.547 3341.57C950.079 2973.37 1070.7 2600.62 1400.84 2372.78C1696.86 2166.79 2099.79 2108.61 2453.9 1981.25C3269.36 1688.12 3807.38 940.421 3683.33 178.606M2224.35 9225.59C2598.55 8673.07 2586.67 7970.11 2389.75 7313.24C2192.83 6656.37 1824.95 6022.46 1516.41 5381.05C1216.42 4758.14 956.944 4117.07 933.978 3472.04C932.393 3430.36 932.089 3388.43 933.029 3346.65C942.368 2975.31 1059.56 2598.4 1393.81 2371.48C1692.64 2167.09 2101.67 2116.31 2460.49 1992.86C3289.94 1708.12 3832.79 952.732 3703.65 186.545M2189.41 9227.02C2579.4 8681.45 2584.68 7978.99 2398.73 7321.42C2212.77 6663.85 1850.6 6031.89 1540.17 5393.15C1234.39 4769.1 965.402 4126.42 932.708 3477.28C930.709 3435.54 929.608 3393.09 930.167 3350.85C934.312 2976.37 1048.07 2595.3 1386.44 2369.32C1688.07 2166.52 2103.24 2122.73 2466.74 2003.6C3310.59 1727.3 3857.86 964.171 3724.07 193.254M2154.47 9228.45C2559.83 8689.79 2582.3 7987.4 2407.69 7329.59C2233.08 6671.78 1877.14 6040.61 1564.33 5405.31C1254.47 4779.91 974.268 4135.83 931.848 3482.56C929.052 3440.31 927.536 3397.81 927.299 3355.05C926.216 2977.84 1037 2592.25 1379.1 2366.74C1683.54 2165.54 2105.18 2129.61 2473.4 2014.39C3331.89 1748.64 3883.33 975.66 3744.49 199.96M2119.5 9230.29C2540.61 8698.99 2580.31 7996.28 2417.05 7338.23C2253.79 6680.19 1904.49 6049.85 1588.5 5417.46C1274.17 4790.26 983.556 4145.29 930.578 3487.79C926.952 3445.44 925.054 3402.48 924.402 3359.67C918.125 2979.32 1025.51 2589.15 1371.7 2364.98C1678.94 2165.38 2106.71 2136.44 2479.61 2025.54C3351.74 1767.31 3907.95 987.456 3764.88 207.079M2084.56 9231.72C2521.04 8707.33 2577.94 8004.69 2425.99 7346.82C2274.04 6688.95 1931.45 6058.62 1612.62 5430.03C1293.8 4801.43 992.39 4155.11 929.686 3493.49C889.896 3072.02 974.55 2611.8 1364.33 2362.81C1674.37 2164.8 2108.28 2142.86 2485.85 2036.28C3372.01 1786.03 3933.01 998.894 3785.3 213.786M2064.68 9238.77C2485.01 8716.91 2549.28 8021.43 2411.81 7376.15C2274.93 6733.86 1935.87 6126.79 1648.13 5507.9C1580.14 5361.24 1518.03 5209.51 1450.17 5056.24C1352.53 4837 1250.7 4617.66 1164.65 4400.29C1068.6 4156.78 992.236 3913.66 948.554 3665.93C943.078 3635.79 938.466 3605.35 934.27 3574.96C892.884 3289.35 910.759 2982.13 1047.24 2732.09C1110.58 2615.58 1200.19 2511.07 1321.59 2427.98C1444.35 2343.8 1588.69 2287.64 1743.67 2244.84C1973.77 2181.58 2225 2146.7 2456.1 2081.5C2651.09 2026.7 2830.54 1946.73 2987.93 1844.5C3169.3 1726.19 3319.01 1579.85 3435.63 1417.75C3562.53 1242.84 3652.01 1048.72 3701.69 843.797C3751.79 638.93 3762.54 422.908 3732.26 210.872M2045.22 9245.87C2449.01 8726.09 2521.01 8038.63 2398.02 7405.95C2275.83 6778.77 1940.75 6194.6 1684.02 5586.24C1622.64 5440.82 1572.94 5286.09 1507.43 5129.78C1413.45 4906.86 1302.21 4684.68 1206.79 4469.04C1100.4 4228.8 1013.08 3991.36 958.226 3746.79C951.47 3716.91 945.544 3687.13 939.653 3656.94C885.09 3373.41 889.23 3064.88 1015.29 2808.97C1074.3 2689.02 1160.07 2580.3 1279.32 2492.78C1399.95 2403.78 1544.7 2342.69 1701.65 2296.4C1934.23 2228.48 2191 2192.63 2426.38 2126.31C2625.66 2070.39 2809.37 1989.71 2967.13 1882.96C3149.74 1759.83 3292.55 1605.57 3402.03 1438.43C3520.18 1257.86 3600.31 1060.07 3645.32 850.835C3689.91 641.545 3700.65 420.545 3679.71 207.19M2025.34 9252.92C2412.57 8735.63 2492.29 8056.18 2383.85 7435.29C2277.08 6824.56 1945.73 6261.18 1719.49 5664.52C1664.76 5519.94 1627.02 5362.56 1563.89 5202.82C1473.19 4975.74 1352.92 4751.18 1248.09 4537.68C1131.81 4300.35 1033.08 4068.95 966.65 3827.49C958.614 3797.86 950.994 3768.29 943.789 3738.76C875.184 3457.62 866.419 3147.89 982.054 2886.11C1036.29 2763.07 1119.07 2649.83 1236.17 2557.89C1355.07 2464.53 1499.43 2398 1658.73 2348.68C1893.34 2276.46 2155.68 2239.23 2396.18 2171.89C2599.75 2114.85 2787.33 2032.99 2946.26 1922.24C3129.73 1793.82 3266.44 1632.17 3368.41 1459.52C3478.17 1273.75 3548.99 1071.89 3588.87 858.694C3628.34 645.443 3638.69 419.001 3626.67 204.276M2005.46 9259.97C2376.12 8745.16 2463.61 8073.33 2369.67 7464.62C2277.98 6869.47 1950.81 6326.53 1755 5742.4C1706.56 5597.77 1682 5438.31 1620.77 5275.9C1533.77 5044.73 1404.01 4818.15 1289.81 4606.38C1163.2 4372.32 1053.96 4146.24 975.904 3908.3C966.555 3879.33 957.655 3850.01 948.755 3820.69C866.558 3541.58 844.057 3230.55 949.653 2963.36C999.555 2836.87 1078.5 2719.41 1193.86 2623.11C1311.05 2524.97 1455.41 2453.46 1617.09 2400.71C1854.19 2323.82 2121.64 2285.57 2367.29 2216.8C2575.15 2158.64 2766.6 2075.61 2926.29 1960.81C3111.03 1827.16 3241.23 1658.05 3335.68 1479.89C3436.65 1288.87 3498.54 1083.41 3533.33 865.837C3567.7 648.214 3577.63 416.742 3574.95 200.698M1985.58 9267.02C2339.67 8754.7 2434.89 8090.88 2355.47 7494.37C2278.36 6915.57 1956.37 6391.11 1790.47 5820.68C1748.74 5676.07 1736.5 5514.83 1677.65 5348.99C1594.3 5114.12 1455.52 4885.17 1331.57 4674.67C1195.06 4443.51 1074.41 4223.47 984.776 3988.64C973.732 3959.88 963.553 3930.81 953.789 3901.79C857.584 3624.66 822.178 3312.43 917.318 3039.78C962.476 2909.79 1037.98 2788.17 1151.2 2687.46C1266.69 2584.54 1410.62 2507.99 1574.65 2452.22C1813.78 2371.02 2087.22 2331.45 2337.16 2261.56C2549.3 2202.28 2745.01 2118.54 2905.07 1999.22C3090.63 1860.69 3214.77 1683.77 3301.29 1500.06C3393.88 1303.84 3446.46 1094.3 3475.7 872.72C3504.95 651.136 3514.49 414.223 3521.15 196.861M1965.69 9274.07C2303.22 8764.24 2406.13 8108.85 2341.29 7523.7C2279.22 6960.89 1962.45 6454.51 1825.97 5898.55C1790.57 5753.49 1791.02 5590.94 1734.52 5422.07C1654.46 5183.06 1506.64 4951.73 1372.87 4743.31C1226.85 4515.53 1094.42 4301.06 993.612 4069.4C981.254 4041.3 969.796 4012.48 958.337 3983.67C848.54 3708.57 799.364 3395.44 884.498 3116.97C925.326 2983.54 997.404 2857.75 1108.47 2752.62C1222.26 2644.92 1366.18 2563.4 1532.18 2504.15C1773.79 2418.28 2052.35 2377.69 2307.4 2306.78C2523.83 2246.37 2723.42 2161.46 2884.23 2038.08C3071.07 1894.33 3188.65 1710.36 3267.69 1520.74C3351.9 1319.32 3395.17 1105.71 3419.32 879.757C3443.48 653.801 3452.6 411.857 3468.6 193.176M1945.81 9281.11C2266.78 8773.77 2376.99 8126.36 2327.08 7553.45C2279.6 7006.98 1969.84 6517.25 1861.45 5976.84C1832.38 5831.32 1845.1 5667.4 1790.98 5495.11C1714.62 5251.99 1557.73 5018.69 1414.17 4811.96C1258.23 4587.49 1114.46 4378.24 1002.04 4150.1C988.399 4122.26 975.211 4094.05 962.473 4065.49C838.669 3792.37 776.206 3477.57 851.266 3194.11C887.316 3057.59 955.997 2927.23 1065.32 2817.73C1176.99 2705.21 1320.91 2618.71 1489.26 2556.43C1733.32 2466.3 2016.99 2424.7 2276.82 2351.89C2497.54 2290.37 2700.96 2204.69 2862.57 2076.85C3050.26 1927.81 3161.74 1736.44 3233.23 1541.72C3309.06 1335.1 3342.99 1117.84 3362.05 887.513C3381.11 657.186 3389.81 410.211 3414.73 190.159M1925.93 9288.16C2230.36 8782.9 2348.2 8144.73 2312.91 7582.79C2280.01 7052.67 2073.37 6558.85 1896.95 6054.71C1901.61 5907.2 1899.63 5743.51 1847.86 5568.19C1774.74 5321.33 1609.27 5085.3 1455.93 4880.24C1290.1 4658.69 1134.92 4455.47 1011.32 4230.49C996.408 4202.91 981.941 4174.96 967.474 4147.01C829.628 3876.28 753.879 3559.81 818.898 3270.95C850.203 3130.93 915.454 2996.41 1022.63 2882.49C1132.56 2765.6 1276.51 2673.71 1446.79 2608.35C1693.3 2513.97 1982.12 2470.94 2247.07 2397.12C2472.49 2334.52 2679.79 2247.67 2842.11 2116.19C3031.04 1962.32 3136.05 1763.09 3200.02 1562.87C3267.47 1351.05 3292.08 1129.71 3306.02 895.424C3319.54 661.084 3328.26 408.72 3362.53 187.35M1906.47 9295.27C2194.33 8792.49 2319.45 8162.7 2299.11 7612.58C2280.36 7099.17 2091.25 6621.65 1933.22 6133.51C1947.94 5986.02 1954.92 5820.55 1905.53 5641.79C1836.11 5390.83 1661.61 5152.43 1498.44 4949.45C1323.14 4730.86 1156.14 4533.63 1020.96 4311.76C1004.31 4284.79 988.98 4257.15 973.233 4229.45C820.965 3960.65 731.896 3642.93 787.29 3348.71C814.266 3205.24 876.085 3066.56 981.108 2948.22C1089.34 2826.55 1232.86 2729.63 1405.52 2660.84C1654.1 2561.74 1948.88 2517.79 2218.53 2442.9C2448.24 2379.19 2659.37 2291.57 2822.48 2155.62C3012.27 1996.47 3111.14 1790.25 3167.64 1584.11C3226.68 1367.51 3242.01 1141.69 3250.44 902.977C3258.87 664.265 3267.17 406.87 3310.77 184.181M1886.58 9302.31C2157.88 8802.02 2290.21 8181.44 2284.94 7641.92C2280.32 7145.21 2109.15 6684.05 1968.72 6211.38C1993.48 6064.32 2009.45 5896.66 1962 5714.83C1895.82 5460.13 1712.7 5219.39 1539.74 5018.1C1354.52 4802.82 1176.56 4611.27 1029.83 4392.11C1011.9 4365.38 994.878 4337.95 977.851 4310.51C811.576 4043.68 709.186 3724.71 754.125 3425.03C776.356 3278.06 834.744 3135.21 937.615 3012.46C1043.73 2885.96 1187.66 2784.12 1362.67 2712.3C1613.7 2608.94 1913.63 2563.57 2188.01 2487.2C2422.01 2422.36 2637.02 2333.57 2800.89 2193.57C2991.94 2029.18 3084.72 1815.56 3132.86 1603.81C3183.52 1382.01 3189.51 1152.53 3192.85 909.448C3196.15 666.776 3204.06 403.939 3257 179.931M1866.71 9309.36C2121.44 8811.56 2260.56 8200.12 2270.77 7671.26C2279.87 7191.2 2126.65 6746.39 2004.23 6289.26C2039.05 6142.21 2063.99 5972.77 2018.91 5787.5C1956.43 5528.7 1764.28 5285.59 1581.53 5085.97C1386.83 4873.66 1197.08 4687.68 1038.74 4472.04C1019.53 4445.57 1000.78 4418.75 982.472 4391.56C801.739 4127.07 686.063 3806.43 721.376 3501.4C738.863 3350.94 793.821 3203.92 894.955 3076.8C999.37 2945.53 1143.29 2838.71 1320.27 2763.4C1573.75 2655.79 1878.83 2608.98 2158.33 2531.6C2396.62 2465.64 2615.91 2375.72 2780.12 2231.62C2972.03 2061.95 3058.67 1841.34 3099.31 1624.08C3142 1397.13 3138.26 1163.53 3136.47 916.487C3134.69 669.443 3142.17 401.576 3204 176.608M1846.82 9316.41C2084.99 8821.09 2299.95 8220.82 2256.56 7701C2217.81 7236.52 2144.52 6809.19 2039.7 6367.54C2084.18 6220.46 2118.06 6049.24 2075.75 5861C2016.52 5598.46 1816.2 5352.66 1623.21 5155.08C1419.04 4945.73 1217.47 4765.73 1047.96 4553.26C1027.44 4527.45 1007.44 4500.47 987.402 4473.9C792.662 4211.39 673.664 3890.33 688.939 3579.05C696.699 3424.47 753.657 3273.56 852.606 3142.43C955.319 3006.38 1098.82 2894.53 1278.14 2816.2C1533.65 2704.28 1844.3 2656.1 2128.51 2577.64C2371.08 2510.56 2594.22 2419.88 2759.21 2271.31C2952.37 2096.82 3032.94 1868.39 3065.64 1645.58C3099.96 1413.44 3086.91 1175.76 3079.99 924.759C3073.11 673.343 3080.18 400.444 3151.34 174.158M1826.91 9323.87C2048.92 8831.09 2274.28 8242.08 2242.76 7730.8C2214.9 7281.79 2162.4 6872 2075.59 6445.88C2130.13 6298.81 2172.98 6125.81 2132.63 5934.08C2076.64 5667.8 1867.74 5419.27 1664.97 5223.37C1451.32 5016.97 1237.93 4842.97 1056.83 4633.6C1034.62 4608 1013.3 4581.68 991.987 4555.37C782.79 4295.19 640.541 3971.22 656.155 3655.84C664.153 3498.37 712.697 3342.68 809.495 3207.13C910.091 3066.25 1054 2949.47 1235.29 2867.66C1493.28 2751.07 1809.46 2701.92 2098.38 2622.4C2345.24 2554.19 2572.24 2462.34 2738 2309.72C2932.01 2129.94 3006.44 1894.52 3031.67 1665.8C3057.57 1428.86 3035.21 1187.12 3023.24 931.333C3011.23 675.956 3017.91 397.617 3098.41 170.012M1807.03 9330.92C2012.47 8840.63 2248.2 8263.28 2228.56 7760.55C2211.61 7326.59 2180.28 6934.8 2111.06 6524.16C2175.67 6377.12 2227.47 6202.33 2189.47 6007.58C2137.18 5737.2 1919.24 5486.29 1706.24 5292.42C1483.12 5088.99 1257.9 4920.97 1065.63 4714.76C1042.11 4689.83 1019.51 4663.77 996.953 4637.29C773.749 4379.09 617.764 4053.82 623.754 3733.08C627.007 3572.12 672.12 3412.26 767.182 3272.35C866.075 3126.7 1009.56 3004.88 1193.2 2920.04C1453.64 2799.2 1774.94 2749.04 2069.04 2667.67C2320.19 2598.34 2551.45 2505.78 2717.99 2348.7C2913.27 2163.68 2976.21 1920.19 2998.9 1686.58C3022.24 1445.18 2984.75 1198.64 2967.24 938.835C2950.14 679.086 2955.98 395.663 3046.24 166.791M1787.15 9337.97C1976.06 8849.75 2221.21 8285.21 2214.38 7789.88C2208.77 7371.03 2197.77 6997.14 2146.57 6602.04C2221.24 6455.01 2281.58 6278.39 2246.38 6080.25C2197.33 5806.13 1971.23 5552.54 1747.99 5360.71C1514.98 5160.18 1278.39 4997.79 1074.5 4795.11C1049.7 4770.43 1025.41 4744.57 1001.54 4718.76C763.875 4462.89 594.603 4135.95 590.968 3809.86C589.061 3645.35 631.574 3481.43 724.484 3337.1C821.26 3186.62 965.119 3060.29 1150.75 2971.55C1413.65 2846.46 1740.1 2794.86 2038.91 2712.43C2294.34 2641.98 2529.47 2548.24 2696.77 2387.1C2892.88 2197.22 2955.12 1947 2964.93 1706.8C2974.49 1459.52 2933.08 1209.58 2910.45 945.82C2887.81 682.059 2893.67 393.247 2992.85 163.005M1767.68 9345.07C1940.03 8859.34 2110.43 8295.8 2200.59 7819.68C2275.14 7425.81 2216.06 7060 2182.42 6680.78C2266.75 6533.72 2336.46 6355.37 2303.61 6154.21C2257.84 5875.94 2023.12 5620.02 1790.09 5429.87C1547.61 5232.3 1299.61 5075.95 1084.14 4876.37C1057.64 4851.9 1032.45 4826.75 1006.88 4801.15C754.767 4547.62 572.244 4218.61 558.949 3887.57C552.298 3719.56 591.38 3551.48 682.139 3402.73C777.212 3247.47 921.063 3116.16 1109.05 3024.4C1374.39 2895.05 1706.41 2842.08 2009.92 2758.57C2269.64 2687 2508.65 2592.09 2676.7 2426.9C2873.66 2231.73 2930.22 1974.16 2931.65 1728.76C2933.24 1476.33 2882.08 1222.69 2854.38 954.143C2826.65 686.01 2832.1 392.166 2940.62 160.606M1747.8 9352.12C1903.58 8868.88 2079.46 8315.15 2186.42 7849.01C2272.96 7472.41 2233.55 7122.34 2217.93 6758.66C2312.32 6611.61 2390.99 6431.48 2360.11 6226.83C2317.59 5944.82 2074.7 5686.22 1831.43 5498.1C1579.47 5303.5 1319.65 5153.13 1092.6 4956.67C1064.78 4932.85 1037.94 4907.5 1011.06 4882.56C744.481 4631.37 548.256 4300.64 525.751 3964.3C514.356 3792.79 550.04 3620.14 639.029 3467.43C731.985 3307.35 875.829 3171.06 1066.19 3075.86C1333.58 2942.2 1671.16 2887.85 1979.4 2802.87C2243.42 2730.18 2486.68 2634.56 2655.1 2464.85C2853.34 2264.44 2903.76 1999.88 2897.29 1748.52C2890.89 1491.35 2830.03 1233.17 2797.21 960.667C2764.39 688.162 2769.41 389.288 2887.27 156.409M1727.92 9359.17C1867.13 8878.42 2047.63 8334.8 2172.21 7878.76C2270.33 7519.38 2251.43 7185.15 2253.4 6836.94C2357.83 6690.32 2445.49 6508 2416.95 6300.33C2378.12 6014.21 2126.24 5752.83 1873.11 5567.21C1611.71 5375.16 1340.04 5231.18 1101.82 5037.88C1072.72 5014.32 1044.56 4989.64 1016.4 4964.95C735.37 4716.1 525.858 4383.7 493.729 4042.01C477.173 3866.95 509.842 3690.18 597.095 3533.11C688.348 3368.25 832.185 3226.98 1024.48 3128.71C1294.31 2990.79 1637.05 2935.02 1950.41 2849.01C2219.13 2775.25 2465.85 2678.41 2634.99 2505.05C2834.05 2299.77 2878.82 2027.45 2864.43 1770.53C2849.64 1508.17 2779.48 1245.92 2741.53 969.451C2703.58 692.985 2708.21 388.671 2835.41 154.473M1708.04 9366.22C1830.69 8887.95 2015.83 8354.05 2158.03 7908.1C2266.87 7566.23 2268.92 7247.49 2288.9 6914.81C2403.4 6768.21 2499.6 6584.06 2473.86 6373C2438.28 6083.15 2177.81 5819.03 1914.9 5635.08C1644.44 5446.04 1360.57 5307.59 1110.72 5117.82C1080.35 5094.51 1050.46 5070.44 1021.05 5045.6C725.566 4799.08 502.352 4464.96 461.012 4117.97C439.712 3939.41 468.951 3758.48 554.052 3596.99C643.188 3427.3 787.432 3281.11 981.662 3179.76C1253.98 3037.17 1601.84 2980.38 1919.9 2893.31C2192.9 2818.42 2443.46 2720.82 2613.81 2543.05C2814.14 2332.54 2852.81 2052.81 2830.48 1790.34C2807.74 1522.83 2727.81 1256.86 2684.35 975.974C2641.31 695.137 2645.52 385.791 2781.64 150.223M1688.16 9373.27C1794.24 8897.49 1983.2 8373.19 2143.86 7937.43C2263.45 7612.68 2286.83 7309.88 2324.41 6992.69C2448.55 6846.05 2554.13 6660.17 2530.32 6446.04C2498.02 6152.03 2229.38 5885.23 1956.2 5703.73C1676.27 5517.65 1380.57 5385.18 1119.56 5198.57C1087.46 5175.88 1056.32 5151.65 1025.6 5127.47C715.657 4883.29 479.157 4547.51 428.193 4195.16C401.733 4013.05 427.955 3828.01 511.32 3662.16C598.754 3487.69 742.542 3336.88 939.188 3231.68C1213.95 3084.84 1567.38 3026.67 1890.18 2938.12C2167.47 2862.11 2422.31 2763.38 2593 2581.51C2794.19 2365.71 2827.14 2079.05 2796.92 1810.6C2766.21 1537.95 2676.56 1267.86 2628.01 982.603C2579.88 697.394 2583.66 383.017 2729.12 146.13M1668.28 9380.32C1757.79 8907.02 1950.16 8392.28 2129.65 7967.18C2259.61 7659.07 2304.29 7372.64 2359.88 7070.97C2494.09 6924.35 2608.21 6736.64 2587.2 6519.12C2558.15 6221.37 2280.93 5951.84 1997.51 5772.37C1708.13 5588.84 1401 5462.82 1127.99 5279.27C1094.6 5256.84 1062.15 5233.27 1029.74 5209.3C705.753 4967.5 455.136 4629.95 394.962 4272.3C363.724 4087.11 386.998 3897.13 468.177 3727.27C553.494 3547.97 697.69 3392.24 896.269 3283.96C1173.48 3132.87 1532.06 3073.27 1859.98 2983.7C2141.56 2906.57 2400.24 2807.08 2571.72 2620.74C2774.14 2400.12 2801.03 2105.65 2762.43 1832C2723.76 1554.2 2624.37 1279.99 2570.7 990.769C2517.03 701.547 2520.84 381.781 2675.64 143.576M1648.4 9387.37C1721.38 8916.15 1916.32 8410.85 2115.48 7996.51C2255.35 7705.41 2322.2 7435.03 2395.39 7148.85C2539.66 7002.24 2662.74 6812.75 2644.08 6592.21C2618.3 6290.31 2332.91 6018.09 2039.26 5840.66C1740.45 5659.68 1421.45 5540.06 1137.27 5359.67C1102.61 5337.48 1068.43 5314.53 1035.15 5290.87C696.71 5051.41 432.806 4712.19 363.007 4349.19C326.609 4160.44 346.868 3966.36 425.896 3792.08C509.51 3608 653.698 3447.29 854.659 3335.58C1134.32 3180.23 1498.02 3119.61 1830.68 3028.56C2116.54 2950.31 2379.1 2849.64 2551.33 2659.25C2754.61 2433.35 2775.78 2131.93 2729.29 1852.32C2682.65 1569.37 2573.5 1291.45 2514.74 997.859C2455.97 704.265 2459.36 379.468 2623.46 140.355M1628.93 9394.47C1685.35 8925.74 1882.51 8429.01 2101.68 8026.31C2251.1 7751.76 2340.08 7497.83 2431.24 7227.59C2585.59 7081.01 2717.62 6889.73 2701.34 6665.76C2679.23 6360.16 2384.84 6085.16 2081.36 5909.82C1773.07 5731.8 1442.29 5617.75 1146.49 5440.88C1110.52 5419.37 1075.09 5396.26 1040.12 5372.79C687.186 5136.08 409.615 4794.74 330.606 4426.43C289.463 4234.19 306.291 4035.94 383.583 3857.29C465.079 3668.39 609.642 3503.16 812.569 3387.97C1094.65 3228.77 1463.95 3166.37 1801.34 3073.83C2091.5 2994.46 2358.34 2892.67 2530.91 2698.18C2735.46 2467.04 2750.54 2158.22 2696.11 1873.05C2641.5 1584.96 2522.63 1302.91 2458.74 1005.36C2394.85 707.805 2397.85 377.566 2570.88 137.082M1609.05 9401.52C1648.9 8935.27 1847.49 8446.61 2087.51 8055.65C2246.08 7797.17 2357.98 7560.23 2466.74 7305.47C2630.74 7158.85 2771.32 6965.73 2757.8 6738.79C2738.1 6429.35 2436.41 6151.36 2122.7 5978.05C1804.97 5802.59 1462.33 5694.93 1155.36 5521.23C1117.69 5499.91 1080.96 5477.47 1044.7 5454.26C677.311 5219.89 386.005 4877.24 297.819 4503.21C251.517 4307.42 265.329 4105.06 340.469 3922C420.264 3728.32 564.819 3558.11 769.713 3439.43C1054.24 3275.97 1428.69 3212.14 1770.79 3118.54C2065.23 3038.04 2335.91 2935.49 2509.28 2736.53C2714.65 2500.52 2724.07 2183.94 2661.72 1893.22C2599.11 1600.39 2470.13 1313.76 2401.15 1011.83C2332.17 709.906 2334.75 374.636 2517.11 132.833M1589.17 9408.57C1612.87 8944.86 1812.1 8463.75 2073.3 8085.39C2241.07 7842.59 2375.45 7622.98 2502.63 7383.8C2676.66 7237.61 2826.23 7042.31 2815.09 6811.93C2799.09 6498.39 2488.4 6217.61 2164.83 6046.8C1837.67 5873.88 1483.17 5772.63 1164.62 5602.03C1125.64 5581.38 1087.62 5559.2 1049.67 5536.19C667.825 5304.15 362.817 4959.78 265.422 4580.46C214.341 4381.58 224.756 4174.64 298.16 3987.21C375.837 3788.71 520.384 3613.52 727.625 3491.81C1014.61 3324.1 1394.21 3258.84 1741.42 3164.22C2040.15 3082.61 2314.71 2978.88 2489.24 2775.92C2695.89 2534.67 2699.21 2210.69 2628.89 1914.82C2558.35 1616.44 2419.58 1326.5 2345.51 1020.21C2271.43 713.909 2273.59 373.608 2465.29 130.487M1569.29 9415.62C1576.42 8954.4 1775.94 8479.95 2059.13 8114.73C2235.7 7887.13 2359.03 7659.09 2538.14 7461.68C2696 7287.74 2880.76 7118.42 2871.97 6885.01C2859.21 6567.73 2540.39 6283.86 2206.55 6115.5C1869.91 5945.54 1503.62 5849.86 1173.87 5682.84C1133.61 5662.44 1093.9 5640.46 1055.05 5618.17C658.712 5388.88 340.035 5042.38 233.43 4657.75C177.19 4455.32 184.208 4243.81 256.257 4052.48C331.817 3849.15 476.738 3669.44 685.98 3543.84C975.41 3371.87 1360.17 3305.18 1712.5 3209.54C2015.52 3126.81 2294.32 3022.37 2469.23 2814.89C2676.74 2568.36 2674.37 2237.03 2596.12 1935.6C2517.21 1632.02 2369.12 1338.02 2289.92 1027.76C2210.72 717.5 2212.49 371.758 2413.53 127.318M1549.41 9422.67C1539.97 8963.93 1739.88 8494.93 2044.95 8144.06C2229.95 7931.21 2385.04 7724.99 2573.64 7539.55C2746.7 7369.59 2934.87 7194.47 2928.47 6957.64C2918.99 6636.2 2591.55 6350.01 2247.92 6183.32C1901.84 6015.92 1524.12 5926.68 1182.36 5762.72C1140.82 5742.58 1099.79 5721.26 1059.25 5699.17C648.458 5472.22 316.495 5124.06 200.266 4734.07C138.865 4528.09 143.282 4312.52 212.765 4116.72C286.207 3908.56 431.536 3723.92 642.711 3595.25C934.591 3419.02 1324.91 3350.96 1681.57 3253.79C1988.88 3169.93 2271.56 3064.32 2447.18 2853.2C2655.93 2601.84 2647.46 2263.11 2560.9 1955.67C2474.02 1646.93 2316.21 1348.81 2231.92 1034.18C2147.63 719.548 2148.97 368.776 2358.93 122.965M1529.53 9429.72C1503.56 8973.06 1703.02 8509.4 2030.74 8173.81C2224.62 7975.35 2410.53 7792.06 2609.11 7617.84C2797.71 7452.73 2989.37 7270.99 2985.31 7031.13C2979.08 6705.96 2643.5 6416.67 2289.61 6252.43C1934.08 6087.57 1544.5 6004.73 1191.58 5843.93C1148.31 5824.41 1106 5803.34 1064.22 5781.1C639.348 5556.94 293.268 5207.01 167.447 4811.27C101.268 4602.2 102.288 4382.05 170.035 4181.89C241.775 3968.95 386.681 3779.28 600.619 3647.63C894.568 3466.69 1290.42 3397.66 1652.2 3299.47C1963.79 3214.49 2250.35 3107.7 2426.73 2892.53C2636.33 2635.89 2622.18 2289.81 2527.69 1976.81C2432.85 1662.93 2265.27 1361.09 2175.89 1042.09C2086.51 723.088 2087.43 367.283 2306.73 120.154M1509.61 9437.18C1467.07 8983.01 1666.2 8523.45 2016.54 8203.55C2218.94 8018.61 2435.09 7860.27 2644.59 7696.12C2848.24 7536.63 3043.86 7347.51 3042.19 7104.22C3039.65 6774.94 2695.56 6482.1 2330.91 6321.07C1966.01 6157.95 1564.51 6082.32 1200 5924.64C1155.45 5905.36 1111.42 5884.91 1068.35 5862.92C628.543 5641.87 269.245 5289.46 134.215 4888.41C62.876 4675.79 60.8798 4451.53 126.89 4247C196.513 4029.23 341.827 3834.64 557.732 3699.5C854.13 3514.3 1255.1 3444.26 1621.61 3344.59C1937.88 3258.95 2228.3 3150.99 2405.06 2931.3C2615.93 2669.42 2596.14 2315.59 2493.26 1997.38C2390.87 1678.41 2213.16 1372.4 2118.23 1049.38C2023.31 726.368 2023.84 365.122 2252.9 116.727M1490.15 9444.28C1431.04 8992.59 1629.93 8535.91 2002.74 8233.35C2214.1 8061.97 2459.17 7929.24 2680.48 7774.46C2899.54 7621.46 3098.78 7424.09 3099.45 7177.77C3100.16 6844.75 2747.48 6549.17 2373.05 6389.82C1998.68 6229.66 1585.38 6159.61 1209.67 6005.5C1163.84 5986.48 1118.53 5966.28 1073.73 5944.9C619.884 5726.24 246.02 5372.42 102.229 4965.7C25.6964 4749.94 20.7188 4521.17 84.5776 4312.22C152.498 4089.67 297.804 3890.1 515.641 3751.89C814.49 3562.43 1220.62 3490.96 1592.28 3389.86C1912.83 3303.1 2207.13 3193.96 2385.06 2970.27C2596.75 2703.52 2571.27 2342.34 2460.47 2018.58C2350.11 1694.46 2162.67 1384.32 2062.62 1057.35C1962.6 729.96 1962.71 363.684 2201.11 113.97M1470.27 9451.33C1394.6 9002.13 1592.9 8547.45 1988.57 8262.69C2209.35 8104.1 2481.97 7998.47 2715.95 7852.74C2949.93 7707.01 3152.86 7500.56 3155.87 7251.21C3159.87 6914.04 2798.57 6616.13 2414.32 6458.88C2030.06 6301.62 1605.36 6237.61 1218.06 6086.61C688.125 5879.98 237.487 5495.79 69.4106 5042.9C-98.6654 4590 46.036 4078.4 473.169 3803.81C1034.15 3442.7 1978.65 3501.34 2363.8 3009.09C2576.77 2737.11 2544.77 2368.47 2426.46 2039.2C2307.72 1709.89 2110.93 1396.09 2005.83 1064.33C1900.72 732.575 1900.41 361.268 2147.72 110.184" stroke="url(#paint0_linear_75_22)" stroke-width="0.5" stroke-miterlimit="10"/>
<defs>
<linearGradient id="paint0_linear_75_22" x1="2691.05" y1="7990.22" x2="3738.16" y2="-97.4692" gradientUnits="userSpaceOnUse">
<stop stop-color="#2973FF"/>
<stop offset="0.48974" stop-color="#8846D3"/>
<stop offset="1" stop-color="#FF22AC"/>
</linearGradient>
</defs>
</svg>
