<svg width="208" height="91" viewBox="0 0 208 91" fill="none" xmlns="http://www.w3.org/2000/svg">
<path d="M48.3463 0V1.57692L41.8463 3.11538L40.9617 3.30769L41.154 4.19231L44.3463 17.7692L30.0771 21.1154L29.1924 21.3077L29.4232 22.1923L33.0001 37.5384L33.2309 38.4231L34.0771 38.2308L48.3463 34.8846V48.0384H24.7694V0H48.3463Z" fill="#284CCB"/>
<path d="M58.1538 0.192139L61.5384 14.6921L76.6538 11.1537L80.2307 26.4998L65.1154 30.0383L68.5 44.4998L52.4615 48.2306L49.0769 33.7691L33.9615 37.3075L30.3846 21.9614L45.5 18.4229L42.1154 3.96137L58.1538 0.192139Z" fill="#C126CE"/>
<path d="M95.7693 46.3845C94.4616 46.0768 93.2693 45.6538 92.1154 45.0768C90.9616 44.4999 89.9231 43.8076 88.9616 42.923C88.0001 42.0384 87.1924 41.0768 86.5001 39.9615C85.8077 38.8461 85.2693 37.6153 84.8847 36.1922C84.5001 34.7691 84.3077 33.2307 84.3077 31.6153C84.3077 30.1922 84.4616 28.8461 84.7693 27.5384C85.077 26.2307 85.5385 24.9999 86.1154 23.8845C86.6924 22.7307 87.4231 21.6922 88.3462 20.7692C89.2693 19.8461 90.2693 19.0384 91.3847 18.3845C92.5 17.7307 93.7693 17.1922 95.2308 16.8461C96.6924 16.4999 98.1924 16.3076 99.8077 16.3076C101.962 16.3076 104.115 16.7692 106.308 17.7307C108.462 18.6922 110.346 20.1153 111.923 22.0384L106.115 27.0384C105.769 26.6538 105.385 26.3076 104.962 25.9615C104.539 25.6153 104.077 25.3076 103.539 24.9999C103 24.6922 102.423 24.423 101.769 24.2692C101.115 24.1153 100.462 23.9999 99.8077 23.9999C99.077 23.9999 98.3462 24.1153 97.6539 24.3076C96.9616 24.4999 96.3077 24.8076 95.6924 25.2692C95.077 25.6922 94.5385 26.2307 94.1154 26.8076C93.6924 27.3845 93.3077 28.1153 93.0385 28.9615C92.7693 29.8076 92.6539 30.6922 92.6539 31.6922C92.6539 32.6922 92.8077 33.6538 93.1539 34.5768C93.5001 35.4999 93.9231 36.3076 94.5385 36.9999C95.1539 37.6922 95.8847 38.2307 96.8077 38.6538C97.7308 39.0768 98.7308 39.2691 99.8077 39.2691C100.962 39.2691 102.115 38.9999 103.269 38.423C104.423 37.8845 105.346 37.1538 106.115 36.2307L111.923 41.2307C110.539 42.923 108.808 44.2691 106.731 45.3461C104.654 46.423 102.346 46.923 99.8077 46.923C98.3847 46.8461 97.077 46.6922 95.7693 46.3845Z" fill="white"/>
<path d="M126.538 25.4617V33.4617C126.115 33.4232 125.615 33.4232 124.962 33.4232C123.577 33.4232 122.5 33.7694 121.808 34.5001C121.115 35.2309 120.731 36.1924 120.731 37.4232V46.3847H113.269V25.9232H120.731V28.7309H120.808C121.538 27.6924 122.385 26.8847 123.385 26.3463C124.385 25.8078 125.423 25.5001 126.538 25.5001V25.4617Z" fill="white"/>
<path d="M148.308 25.9231L137.769 54.6923H130.5L133.962 44.9231L126.154 25.9231H133.846L137.308 35.6154H137.385L140.654 25.9231H148.308Z" fill="white"/>
<path d="M164.654 25.8462C165.423 26.077 166.192 26.4231 166.846 26.8462C167.5 27.2693 168.115 27.8077 168.654 28.4616C169.192 29.1154 169.654 29.8077 170.038 30.577C170.423 31.3462 170.731 32.2308 170.923 33.1923C171.115 34.1539 171.231 35.1154 171.231 36.1539C171.231 38.2308 170.846 40.077 170.038 41.7308C169.231 43.3846 168.115 44.6154 166.654 45.5C165.192 46.3846 163.577 46.8462 161.692 46.8462C159.577 46.8462 157.885 46.1154 156.615 44.6539V54.6923H149.154V25.9231H156.654V28H156.731C158.154 26.3462 160 25.5 162.231 25.5C163.038 25.4616 163.846 25.6154 164.654 25.8462ZM162.731 39.1539C163.423 38.3846 163.769 37.3846 163.769 36.1539C163.769 34.9231 163.423 33.9616 162.731 33.1923C162.038 32.4231 161.192 32.0385 160.115 32.0385C159 32.0385 158.115 32.4231 157.385 33.1923C156.654 33.9616 156.308 34.9616 156.308 36.1539C156.308 37.3846 156.654 38.3846 157.385 39.1539C158.077 39.9231 159 40.2693 160.115 40.2693C161.154 40.3077 162.038 39.9231 162.731 39.1539Z" fill="white"/>
<path d="M177.423 46.4231C176.692 46.1539 176.038 45.7308 175.5 45.1924C174.962 44.6539 174.5 43.9231 174.192 43.0385C173.885 42.1539 173.731 41.1539 173.731 40.0001V31.8847H171.5V25.9232H173.731V19.4616L181.192 18.6924V25.9232H185.654V31.8462H181.192V38.3462C181.192 38.6155 181.192 38.8847 181.231 39.077C181.269 39.3078 181.308 39.5001 181.385 39.7308C181.462 39.9616 181.615 40.1155 181.808 40.2308C182 40.3462 182.231 40.4231 182.538 40.4231C183.077 40.4231 183.577 40.3078 184.038 40.077L185.846 45.2693C184.962 45.7693 184.077 46.1539 183.192 46.3847C182.308 46.6539 181.192 46.7693 179.846 46.7693C178.962 46.8462 178.154 46.6924 177.423 46.4231Z" fill="white"/>
<path d="M190.923 45.5001C189.231 44.6155 187.885 43.3463 186.923 41.7309C185.962 40.1155 185.5 38.2693 185.5 36.1924C185.5 34.1155 185.962 32.2693 186.923 30.654C187.885 29.0386 189.192 27.7693 190.923 26.8847C192.615 26.0001 194.577 25.5386 196.769 25.5386C198.962 25.5386 200.885 26.0001 202.577 26.8847C204.269 27.7693 205.615 29.0386 206.577 30.654C207.538 32.2693 208 34.1155 208 36.1924C208 38.2693 207.538 40.1155 206.577 41.7309C205.615 43.3463 204.308 44.6155 202.577 45.5001C200.846 46.3847 198.923 46.8463 196.769 46.8463C194.577 46.8463 192.654 46.3847 190.923 45.5001ZM199.423 39.077C200.115 38.3078 200.5 37.3463 200.5 36.154C200.5 34.9616 200.154 33.9616 199.462 33.2309C198.769 32.4616 197.885 32.1155 196.769 32.1155C196.231 32.1155 195.731 32.2309 195.269 32.4232C194.808 32.6155 194.423 32.9232 194.077 33.2693C193.769 33.6155 193.5 34.0386 193.308 34.5386C193.115 35.0386 193.038 35.577 193.038 36.154C193.038 36.6155 193.115 37.0386 193.231 37.4616C193.346 37.8847 193.538 38.2693 193.731 38.577C193.962 38.9232 194.231 39.1924 194.538 39.4232C194.846 39.654 195.192 39.8463 195.577 40.0001C195.962 40.1155 196.346 40.1924 196.769 40.1924C197.808 40.2309 198.731 39.8463 199.423 39.077Z" fill="white"/>
<path d="M0 51.4229H20.1923V58.6921H7.88461V63.269H17.5385V70.3459H7.84615V74.6152H21.0769V81.8459H0V51.4229Z" fill="#C126CE"/>
<path d="M56.7308 69.5766V81.8458H49.1154V71.3073C49.1154 70.9612 49.1154 70.6535 49.0769 70.3843C49.0384 70.115 49.0385 69.8073 48.9615 69.5381C48.9231 69.2689 48.8461 68.9996 48.7692 68.7689C48.6923 68.5381 48.5769 68.3458 48.4615 68.115C48.3461 67.9227 48.1923 67.7689 48 67.6535C47.8077 67.5381 47.6154 67.4227 47.3846 67.3458C47.1538 67.2689 46.8846 67.2304 46.6154 67.2304C45.8077 67.2304 45.1154 67.5766 44.6154 68.2689C44.1154 68.9612 43.8461 69.9612 43.8461 71.3458V81.8842H36.1923V71.3073C36.1923 70.6919 36.1538 70.1919 36.0769 69.6919C36 69.2304 35.8846 68.8073 35.6923 68.4227C35.5 68.0381 35.2308 67.7304 34.9231 67.5381C34.6154 67.3458 34.1538 67.2304 33.6923 67.2304C32.8077 67.2304 32.1154 67.5766 31.5769 68.2689C31.0385 68.9612 30.7692 69.9612 30.7692 71.3458V81.8842H23.0769V60.9227H30.7308V63.3073H30.7692C31.5 62.3843 32.3461 61.6919 33.3077 61.1919C34.2692 60.7304 35.3077 60.4612 36.3846 60.4612C39.1538 60.4612 41.1923 61.4612 42.3846 63.4227H42.4615C44.1154 61.4612 46.3846 60.4612 49.2308 60.4612C54.2308 60.4612 56.7308 63.4996 56.7308 69.5766Z" fill="#C126CE"/>
<path d="M79.4231 73.2305H65.6923C65.8461 74.1921 66.3461 74.9613 67.1154 75.4613C67.8846 75.9613 68.8846 76.2305 70.0384 76.2305C71.7692 76.2305 73.3846 75.4613 74.8846 73.9228L78.8461 78.269C77.8846 79.4613 76.5769 80.4228 74.9231 81.1536C73.2692 81.8844 71.3846 82.269 69.2308 82.269C67.1538 82.269 65.2692 81.8075 63.6154 80.8844C61.9615 79.9613 60.6154 78.6921 59.6923 76.9998C58.7308 75.3075 58.2692 73.4228 58.2692 71.3075C58.2692 69.2305 58.7308 67.3459 59.6538 65.6921C60.5769 64.0382 61.8846 62.7305 63.5384 61.8075C65.1923 60.8844 67.0769 60.4229 69.1538 60.4229C70.6538 60.4229 72.0384 60.6921 73.3461 61.2305C74.6538 61.769 75.7692 62.4998 76.6923 63.4229C77.6154 64.3459 78.3461 65.4998 78.8846 66.8459C79.4231 68.1921 79.6923 69.6152 79.6923 71.1921C79.6154 71.9998 79.5384 72.6921 79.4231 73.2305ZM66.8461 66.9998C66.2308 67.4998 65.8461 68.1921 65.6923 69.0767H72.1923C72.1154 68.6536 71.9615 68.269 71.7692 67.9228C71.5769 67.5767 71.3461 67.269 71.0769 67.0382C70.8077 66.8075 70.5 66.6152 70.1538 66.4998C69.8077 66.3844 69.4231 66.3075 69 66.3075C68.1923 66.269 67.4615 66.5382 66.8461 66.9998Z" fill="#C126CE"/>
<path d="M94.8846 60.4613V68.6152C94.4615 68.5767 93.923 68.5767 93.2692 68.5767C91.8461 68.5767 90.7692 68.9613 90.0384 69.6921C89.3077 70.4229 88.923 71.4229 88.923 72.6921V81.8459H81.2692V60.8844H88.923V63.7305H89C89.7307 62.6536 90.6154 61.8459 91.6154 61.269C92.6154 60.6921 93.6923 60.4229 94.8461 60.4229H94.8846V60.4613Z" fill="#C126CE"/>
<path d="M117.308 60.8843V78.8073C117.308 80.2689 117.192 81.5766 116.962 82.7689C116.731 83.9612 116.346 85.0381 115.769 86.0381C115.192 87.0381 114.5 87.8842 113.615 88.5766C112.731 89.2689 111.654 89.8073 110.308 90.1919C108.962 90.5766 107.462 90.7689 105.731 90.7689C103.923 90.7689 102.346 90.615 101.038 90.3458C99.7307 90.0766 98.3846 89.5766 97.0384 88.8458L98.7307 82.8458C99.5 83.3073 100.423 83.7304 101.577 84.0381C102.731 84.3843 103.808 84.5381 104.769 84.5381C106.385 84.5381 107.654 84.2304 108.538 83.5766C109.423 82.9227 109.885 82.115 109.885 81.1535V79.2689H109.808C108.462 80.7304 106.615 81.4612 104.269 81.4612C102.462 81.4612 100.846 80.9996 99.3846 80.115C97.9231 79.2304 96.8461 77.9996 96.0384 76.4227C95.2692 74.8843 94.8461 73.115 94.8461 71.1919C94.8461 69.6535 95.0769 68.2304 95.5384 66.8843C96 65.5381 96.6538 64.4227 97.423 63.4612C98.1923 62.4996 99.1538 61.8073 100.269 61.2689C101.385 60.7304 102.577 60.4612 103.808 60.4612C106.154 60.4612 108.077 61.2689 109.538 62.9612H109.615V60.9227L117.308 60.8843ZM108.962 73.6535C109.654 72.9612 110 72.0766 110 70.9612C110 69.8843 109.654 68.9996 108.923 68.2689C108.192 67.5766 107.346 67.2304 106.308 67.2304C105.269 67.2304 104.385 67.5766 103.654 68.2689C102.923 68.9612 102.577 69.8843 102.577 70.9612C102.577 72.0766 102.923 72.9612 103.654 73.6535C104.385 74.3458 105.231 74.6919 106.308 74.6919C107.385 74.6919 108.231 74.3458 108.962 73.6535Z" fill="#C126CE"/>
<path d="M140.154 73.2305H126.423C126.577 74.1921 127.077 74.9613 127.846 75.4613C128.615 75.9613 129.615 76.2305 130.769 76.2305C132.5 76.2305 134.115 75.4613 135.577 73.9228L139.538 78.269C138.577 79.4613 137.269 80.4228 135.615 81.1536C133.961 81.8844 132.077 82.269 129.923 82.269C127.846 82.269 125.961 81.8075 124.308 80.8844C122.654 79.9613 121.308 78.6921 120.385 76.9998C119.423 75.3075 118.962 73.4228 118.962 71.3075C118.962 69.2305 119.423 67.3459 120.346 65.6921C121.269 64.0382 122.577 62.7305 124.231 61.8075C125.885 60.8844 127.769 60.4229 129.846 60.4229C131.346 60.4229 132.731 60.6921 134.038 61.2305C135.346 61.769 136.461 62.4998 137.385 63.4229C138.308 64.3459 139.038 65.4998 139.577 66.8459C140.115 68.1921 140.385 69.6152 140.385 71.1921C140.346 71.9998 140.269 72.6921 140.154 73.2305ZM127.577 66.9998C126.961 67.4998 126.577 68.1921 126.423 69.0767H132.961C132.885 68.6536 132.731 68.269 132.538 67.9228C132.346 67.5767 132.115 67.269 131.846 67.0382C131.577 66.8075 131.269 66.6152 130.923 66.4998C130.577 66.3844 130.192 66.3075 129.769 66.3075C128.923 66.269 128.192 66.5382 127.577 66.9998Z" fill="#C126CE"/>
<path d="M157.692 60.615C158.308 60.7304 158.923 60.9227 159.461 61.1919C160.038 61.4612 160.538 61.8073 160.961 62.2689C161.385 62.7304 161.769 63.2689 162.077 63.8843C162.385 64.4996 162.654 65.2689 162.808 66.1535C162.961 67.0381 163.038 68.0381 163.038 69.1535V81.8458H155.385V70.9996C155.385 70.0381 155.269 69.2689 155.077 68.6919C154.885 68.115 154.577 67.7689 154.192 67.5381C153.808 67.3073 153.308 67.2304 152.654 67.2304C151.692 67.2304 150.961 67.5766 150.423 68.2304C149.885 68.9227 149.615 69.9227 149.615 71.3073V81.8458H142V60.8843H149.654V63.1919H149.692C150.461 62.3073 151.346 61.615 152.385 61.1535C153.423 60.692 154.5 60.4612 155.654 60.4612C156.385 60.4612 157.038 60.4996 157.692 60.615Z" fill="#C126CE"/>
<path d="M169.961 80.923C168.269 79.9999 166.961 78.7307 166.038 77.0384C165.077 75.3845 164.615 73.4999 164.615 71.3461C164.615 69.2307 165.115 67.3076 166.077 65.6537C167.038 63.9999 168.385 62.6922 170.154 61.7691C171.923 60.8461 173.885 60.3845 176.115 60.3845C177.923 60.3845 179.615 60.7691 181.269 61.4999C182.885 62.2307 184.231 63.3076 185.269 64.6922L180.192 68.9999C179.115 67.7307 177.846 67.1153 176.308 67.1153C175.115 67.1153 174.154 67.4999 173.423 68.2691C172.692 69.0384 172.308 69.9999 172.308 71.2307C172.308 72.4614 172.692 73.4614 173.461 74.2307C174.231 74.9999 175.192 75.3845 176.385 75.3845C177.923 75.3845 179.192 74.8076 180.154 73.6922L185.346 78.2307C184.385 79.423 183.077 80.3845 181.385 81.1153C179.692 81.8461 177.769 82.2307 175.577 82.2307C173.5 82.2691 171.615 81.8076 169.961 80.923Z" fill="#C126CE"/>
<path d="M207.385 60.8843L196.615 90.3073H189.192L192.731 80.3073L184.692 60.8843H192.577L196.115 70.8074H196.192L199.538 60.8843H207.385Z" fill="#C126CE"/>
</svg>
