<svg width="1920" height="3082" viewBox="0 0 1920 3082" fill="none" xmlns="http://www.w3.org/2000/svg">
<path d="M1595.95 -68.5022C1557.03 70.798 1600.54 226.825 1652.09 374.716C1703.64 522.607 1764.33 673.068 1760.16 820.608C1756.62 944.97 1705.1 1061.94 1615.4 1149.08C1523.02 1238.84 1394.96 1294.92 1277.74 1360.55C1160.51 1426.19 1047.82 1508.17 1006.45 1626.65M1602.57 -66.8525C1561.23 70.3322 1601.45 225.37 1650.97 372.642C1700.49 519.914 1759.96 669.931 1756.46 816.968C1753.83 934.495 1710.03 1045.66 1631.61 1132.15C1626.6 1137.64 1621.55 1143.02 1616.27 1148.31C1570.57 1194.29 1515.48 1231.86 1456.18 1265.12C1397.87 1297.95 1336.2 1326.57 1277.22 1358.12C1157.85 1421.59 1043.82 1504.58 1003.09 1624.22M1609.24 -65.2764C1565.39 69.7605 1602.47 223.875 1649.85 370.569C1697.23 517.263 1755.52 666.763 1752.76 813.329C1750.88 931.359 1709.01 1043.37 1632.15 1131.15C1627.28 1136.7 1622.27 1142.19 1617.04 1147.59C1572.11 1194.43 1517.36 1233.02 1457.38 1265.82C1398.65 1298.19 1336.37 1325.4 1276.7 1355.69C1155.42 1417.28 1039.8 1501.07 999.664 1621.76M1615.86 -63.6267C1569.51 69.2623 1603.38 222.42 1648.62 368.537C1693.87 514.653 1750.96 663.635 1749.02 809.763C1747.89 928.297 1707.96 1041.14 1632.72 1130.25C1627.9 1135.91 1623 1141.54 1617.92 1147C1573.76 1194.7 1519.31 1234.23 1458.66 1266.73C1399.51 1298.66 1336.57 1324.35 1276.27 1353.48C1152.96 1413.03 1035.89 1497.69 996.317 1619.51M1622.49 -61.9771C1573.74 68.7226 1604.37 220.998 1647.5 366.463C1690.64 511.928 1746.15 660.485 1745.31 806.123C1744.65 925.211 1706.94 1038.85 1633.25 1129.25C1628.58 1134.98 1623.73 1140.71 1618.79 1146.23C1575.43 1194.73 1521.32 1235.28 1460.04 1267.42C1400.47 1298.9 1336.87 1323.07 1275.93 1351.04C1150.6 1408.56 1032.08 1494.09 993.176 1617M1629.12 -60.3271C1577.87 68.2247 1605.28 219.543 1646.35 364.463C1687.43 509.383 1741.64 657.464 1741.62 802.663C1741.6 922.297 1705.89 1036.81 1633.8 1128.43C1629.24 1134.29 1624.46 1140.06 1619.57 1145.69C1576.98 1195.05 1523.12 1236.42 1461.24 1268.3C1401.21 1299.22 1336.96 1321.87 1275.35 1348.76C1147.99 1404.26 1028.02 1490.65 989.682 1614.68M1635.78 -58.7513C1582.1 67.6849 1606.3 218.047 1645.23 362.389C1684.17 506.731 1737.12 654.263 1737.91 799.023C1738.54 919.202 1704.87 1034.51 1634.33 1127.43C1629.85 1133.32 1625.19 1139.23 1620.41 1145C1578.58 1195.22 1525.1 1237.54 1462.48 1269.1C1402.03 1299.58 1337.12 1320.71 1274.87 1346.43C1145.52 1399.83 1024.07 1487.17 986.293 1612.33M1642.41 -57.1015C1586.22 67.1868 1607.21 216.592 1644.04 360.283C1680.87 503.974 1732.6 651.061 1734.13 795.351C1735.44 916.001 1703.78 1032.18 1634.86 1126.42C1630.5 1132.46 1625.91 1138.4 1621.2 1144.2C1580.15 1195.28 1526.97 1238.53 1463.71 1269.73C1402.87 1299.68 1337.28 1319.36 1274.42 1343.86C1142.97 1395.19 1020.21 1483.46 983.004 1609.75M1649.04 -55.4519C1590.34 66.6887 1608.23 215.096 1642.89 358.283C1677.55 501.47 1728.09 648.04 1730.47 791.818C1732.49 913.045 1702.8 1029.99 1635.44 1125.53C1631.15 1131.6 1626.67 1137.67 1622.09 1143.61C1581.8 1195.56 1528.96 1239.84 1464.99 1270.64C1403.73 1300.14 1337.4 1318.27 1273.99 1341.64C1140.44 1390.92 1016.27 1480.16 979.657 1607.5M1655.67 -53.802C1594.54 66.223 1609.14 213.642 1641.74 356.283C1674.33 498.925 1723.54 644.913 1726.73 788.252C1729.4 910.024 1701.75 1027.77 1635.94 1124.6C1631.76 1130.81 1627.37 1136.92 1622.82 1142.96C1583.34 1195.7 1530.84 1241.01 1466.16 1271.41C1404.47 1300.46 1337.53 1317 1273.36 1339.25C1137.74 1386.4 1012.17 1476.61 976.228 1605.04M1662.3 -52.1521C1598.67 65.7251 1610.13 212.22 1640.51 354.251C1670.9 496.283 1718.98 641.786 1722.96 784.76C1726.38 907.036 1700.66 1025.63 1636.48 1123.78C1632.38 1130.02 1628.1 1136.26 1623.7 1142.37C1584.91 1195.94 1532.79 1242.21 1467.44 1272.32C1405.33 1300.93 1337.65 1315.91 1272.93 1337.04C1135.24 1382.04 1008.26 1473.24 972.882 1602.79M1668.96 -50.5763C1602.9 65.1854 1611.07 210.691 1639.43 352.104C1667.78 493.516 1714.57 638.543 1719.29 781.047C1723.35 903.867 1699.6 1023.22 1637.05 1122.7C1633.06 1129.08 1628.86 1135.36 1624.5 1141.58C1586.48 1196.01 1534.73 1243.23 1468.67 1272.94C1406.14 1301.1 1337.77 1314.46 1272.44 1334.53C1132.66 1377.48 1004.3 1469.57 969.485 1600.25M1675.58 -48.9266C1607.05 64.6133 1612.06 209.269 1638.28 350.104C1664.49 490.939 1710.09 635.448 1715.55 777.481C1720.34 900.879 1698.55 1021 1637.55 1121.77C1633.64 1128.18 1629.62 1134.63 1625.3 1140.96C1588.06 1196.25 1536.6 1244.4 1469.91 1273.74C1406.96 1301.46 1337.85 1313.27 1271.97 1332.21C1130.04 1372.99 1000.35 1466.09 966.171 1597.93M1682.21 -47.2767C1611.18 64.1153 1612.97 207.814 1637.05 348.072C1661.13 488.329 1705.51 632.395 1711.82 773.915C1717.28 897.784 1697.49 1018.78 1638.13 1120.88C1634.33 1127.43 1630.39 1133.91 1626.22 1140.3C1589.74 1196.46 1538.66 1245.56 1471.22 1274.58C1407.85 1301.84 1338.05 1312.03 1271.49 1329.89C1127.5 1368.54 996.397 1462.61 962.783 1595.57M1688.84 -45.627C1615.38 63.6495 1613.96 206.392 1635.93 345.998C1657.9 485.604 1701.06 629.226 1708.11 770.275C1714.29 894.722 1696.44 1016.56 1638.66 1119.88C1635.01 1126.49 1631.11 1133.08 1626.98 1139.57C1591.31 1196.52 1540.57 1246.65 1472.42 1275.28C1408.63 1302.09 1338.17 1310.76 1270.98 1327.46C1124.87 1363.87 992.371 1459.09 959.354 1593.11M1695.47 -43.9771C1619.5 63.1515 1614.87 204.937 1634.78 343.998C1654.69 483.059 1696.58 626.132 1704.42 766.816C1711.35 891.766 1695.43 1014.44 1639.2 1119.05C1635.6 1125.77 1631.84 1132.43 1627.83 1139.06C1592.93 1196.87 1542.45 1248 1473.67 1276.26C1409.45 1302.63 1338.3 1309.67 1270.51 1325.31C1122.34 1359.59 988.428 1455.79 956.082 1590.89M1702.13 -42.4013C1623.73 62.6118 1615.82 203.409 1633.66 341.924C1651.51 480.44 1692.21 622.995 1700.71 763.176C1708.36 888.703 1694.41 1012.15 1639.74 1118.05C1636.28 1124.84 1632.57 1131.6 1628.63 1138.26C1594.49 1196.94 1544.39 1249.02 1474.9 1276.89C1410.26 1302.81 1338.41 1308.22 1270.02 1322.81C1119.71 1354.92 984.467 1452.13 952.685 1588.36M1708.76 -40.7516C1627.85 62.1137 1616.8 201.987 1632.47 339.818C1648.13 477.65 1687.69 619.794 1696.93 759.504C1705.34 885.535 1693.32 1009.82 1640.27 1117.05C1636.85 1123.94 1633.29 1130.77 1629.47 1137.57C1596.1 1197.11 1546.38 1250.15 1476.14 1277.69C1411.08 1303.16 1338.53 1306.95 1269.47 1320.46C1117.05 1350.32 980.441 1448.61 949.223 1585.97M1715.39 -39.1016C1631.98 61.6158 1617.75 200.458 1631.32 337.818C1644.88 475.178 1683.21 616.699 1693.27 755.97C1702.39 882.579 1692.34 1007.63 1640.85 1116.15C1637.58 1123.11 1634.06 1130.04 1630.31 1136.87C1597.71 1197.28 1548.36 1251.28 1477.41 1278.42C1412 1303.48 1338.61 1305.57 1269.03 1318.06C1114.5 1345.69 976.523 1445.06 945.942 1583.57M1722.09 -37.4196C1636.25 61.1823 1618.81 199.068 1630.24 335.851C1641.67 472.633 1678.88 613.669 1689.61 752.437C1699.41 879.516 1691.36 1005.44 1641.42 1115.26C1638.2 1122.32 1634.82 1129.32 1631.19 1136.29C1599.4 1197.48 1550.28 1252.55 1478.73 1279.25C1412.9 1303.86 1338.81 1304.34 1268.63 1315.77C1111.99 1341.16 972.72 1441.64 942.628 1581.25M1728.72 -35.7697C1640.37 60.6844 1619.72 197.614 1629.01 333.819C1638.31 470.024 1674.33 610.542 1685.84 748.945C1696.43 876.634 1690.27 1003.3 1641.96 1114.44C1638.89 1121.56 1635.56 1128.66 1632.04 1135.78C1601.01 1197.83 1552.27 1253.86 1480.05 1280.27C1413.8 1304.43 1339.01 1303.28 1268.24 1313.66C1109.49 1336.81 968.819 1438.44 939.324 1579.11M1735.38 -34.194C1644.64 60.0707 1620.74 196.118 1627.93 331.671C1635.11 467.224 1669.99 607.331 1682.17 745.231C1693.51 873.424 1689.28 1000.93 1642.53 1113.36C1639.57 1120.62 1636.31 1127.76 1632.87 1134.9C1602.61 1197.83 1554.24 1254.81 1481.31 1280.82C1414.6 1304.61 1339.16 1301.75 1267.71 1311.05C1106.85 1331.96 964.816 1434.67 935.992 1576.42M1742.01 -32.5441C1648.76 59.5727 1621.65 194.663 1626.78 329.671C1631.9 464.679 1665.51 604.236 1678.43 741.666C1690.52 870.362 1688.23 998.704 1643.03 1112.43C1640.15 1119.73 1636.97 1127.08 1633.68 1134.28C1604.19 1198.07 1556.16 1256.08 1482.52 1281.7C1415.39 1305.04 1339.24 1300.56 1267.2 1308.8C1104.16 1327.43 960.832 1431.26 932.572 1574.14M1748.64 -30.8945C1652.88 59.0744 1622.64 193.241 1625.62 327.671C1628.61 462.101 1661.14 601.1 1674.77 738.132C1687.58 867.405 1687.22 996.589 1643.65 1111.64C1640.88 1119.08 1637.78 1126.46 1634.53 1133.77C1605.81 1198.42 1558.15 1257.39 1483.8 1282.61C1416.32 1305.53 1339.41 1299.39 1266.77 1306.58C1101.65 1322.9 956.922 1427.89 929.225 1571.89M1755.27 -29.2445C1657.08 58.6089 1623.55 191.786 1624.43 325.565C1625.31 459.344 1656.69 597.931 1670.99 734.46C1684.63 864.269 1686.13 994.262 1644.11 1110.61C1641.41 1118.08 1638.5 1125.63 1635.33 1132.97C1607.33 1198.38 1559.98 1258.45 1485 1283.31C1417.1 1305.78 1339.48 1298.02 1266.25 1304.15C1099.02 1318.23 952.929 1424.3 925.87 1569.46M1761.89 -27.5948C1661.21 58.1107 1624.54 190.364 1623.28 323.565C1622.02 456.767 1652.22 594.836 1667.29 731C1681.68 861.313 1685.11 992.146 1644.65 1109.79C1642.07 1117.39 1639.23 1124.98 1636.1 1132.43C1608.88 1198.7 1562.02 1259.86 1486.2 1284.18C1417.89 1306.39 1339.53 1296.72 1265.67 1301.87C1096.29 1313.61 948.87 1420.86 922.375 1567.15M1768.55 -26.0188C1665.44 57.5713 1625.48 188.836 1622.16 321.492C1618.84 454.148 1647.84 591.7 1663.59 727.361C1678.73 858.177 1684.09 989.851 1645.26 1108.82C1642.75 1116.46 1640.03 1124.18 1637.01 1131.77C1610.56 1198.9 1563.97 1261.06 1487.52 1285.02C1418.86 1306.81 1339.73 1295.48 1265.27 1299.58C1093.81 1309 944.96 1417.48 919.062 1564.82M1775.18 -24.369C1669.56 57.0732 1626.47 187.414 1620.97 319.386C1615.47 451.358 1643.43 588.457 1659.81 723.689C1675.78 855.041 1683 987.523 1645.72 1107.78C1643.33 1115.56 1640.68 1123.31 1637.81 1130.97C1612.13 1198.97 1565.91 1262.09 1488.75 1285.64C1419.67 1306.99 1339.87 1293.95 1264.78 1297.08C1091.25 1304.18 941 1413.82 915.772 1562.25M1781.81 -22.7194C1673.68 56.5749 1627.41 185.885 1619.82 317.386C1612.22 448.886 1639.24 585.311 1656.14 720.155C1673.12 852.034 1682.02 985.334 1646.29 1106.89C1643.98 1114.7 1641.45 1122.59 1638.62 1130.35C1613.7 1199.21 1567.86 1263.29 1489.99 1286.45C1420.48 1307.34 1339.99 1292.68 1264.31 1294.76C1088.63 1299.51 937.048 1410.33 912.384 1559.89M1788.44 -21.0694C1677.88 56.1094 1628.4 184.463 1618.67 315.386C1608.93 446.309 1634.84 582.249 1652.41 716.589C1670.06 848.939 1680.97 983.112 1646.79 1105.96C1644.59 1113.91 1642.14 1121.83 1639.43 1129.73C1615.31 1199.38 1569.73 1264.46 1491.19 1287.33C1421.27 1307.77 1340.07 1291.31 1263.76 1292.4C1086.02 1294.41 933.022 1406.82 908.996 1557.53M1795.1 -19.4938C1682.07 55.4633 1629.35 182.934 1617.47 313.28C1605.6 443.625 1630.32 579.048 1648.67 713.023C1667.05 845.951 1679.84 980.858 1647.37 1105.06C1645.32 1113.08 1642.9 1121.11 1640.27 1129.04C1616.92 1199.55 1571.68 1265.66 1492.47 1288.05C1422.12 1308.05 1340.22 1289.96 1263.31 1290C1083.5 1289.88 929.178 1403.3 905.641 1555.1M1801.73 -17.8438C1686.27 54.9977 1630.33 181.512 1616.35 311.206C1602.38 440.9 1625.84 575.953 1644.97 709.384C1664.09 842.815 1678.82 978.563 1647.9 1104.06C1628.18 1184 1582.68 1264.27 1493.71 1288.86C1422.94 1308.41 1340.35 1288.69 1262.84 1287.68C1080.92 1285.32 925.226 1399.81 902.253 1552.75M1805.9 -18.0555C1693.63 55.2022 1636.77 179.994 1620.9 306.57C1605.1 432.565 1629.4 563.133 1643.34 693.072C1646.61 723.853 1648.45 755.247 1651.26 787.242C1655.4 833.037 1660.31 879.08 1662.4 923.895C1664.67 974.081 1663.29 1023.12 1655.49 1071.21C1654.57 1077.07 1653.47 1082.94 1652.3 1088.78C1641.63 1143.74 1618.48 1199.44 1576.83 1238.1C1557.47 1256.12 1533.97 1270.49 1505.9 1279.18C1477.51 1287.98 1446.88 1290.44 1415.13 1289.85C1368.01 1288.92 1318.76 1281.59 1271.32 1280.97C1231.31 1280.4 1192.58 1285.32 1156.54 1295.56C1114.99 1307.46 1077.54 1326.26 1045.28 1349.78C1010.26 1375.1 981.008 1406.01 958.505 1441.1C935.927 1476.15 919.992 1515.41 911.988 1556.19M1810 -18.2998C1700.95 55.4803 1643.17 178.369 1625.4 301.828C1607.83 424.229 1632.86 550.355 1641.68 676.654C1643.79 706.843 1643.11 738.113 1645.29 770.537C1648.5 816.812 1654.99 863.895 1658.95 908.904C1663.36 959.053 1664.4 1007.64 1658.89 1055.77C1658.23 1061.65 1657.42 1067.47 1656.57 1073.36C1648.51 1128.66 1627.84 1185.35 1587.77 1225.66C1568.99 1244.56 1545.94 1259.92 1517.99 1269.54C1489.68 1279.35 1458.66 1282.69 1426.32 1282.64C1378.43 1282.43 1328.08 1274.98 1279.77 1274.33C1238.88 1273.73 1199.31 1278.55 1162.91 1289.61C1120.81 1302.32 1084.15 1322.96 1052.9 1347.8C1019.15 1374.65 991.412 1406.75 969.505 1442.88C947.672 1479.05 931.418 1519.24 921.582 1559.75M1814.18 -18.5115C1708.39 55.7171 1649.67 176.703 1629.94 297.192C1610.55 415.714 1636.22 537.799 1640.09 660.269C1641.01 689.94 1637.92 721.043 1639.44 753.971C1641.77 800.832 1649.79 848.848 1655.64 893.978C1662.1 944.132 1665.65 992.231 1662.52 1040.42C1662.11 1046.32 1661.63 1052.2 1661.08 1058.04C1655.79 1113.66 1637.46 1171.29 1598.95 1213.25C1580.88 1232.98 1558.09 1249.34 1530.26 1259.89C1501.99 1270.6 1470.7 1274.97 1437.72 1275.34C1389.17 1275.82 1337.69 1268.32 1288.35 1267.57C1246.59 1266.95 1206.22 1271.77 1169.35 1283.5C1126.75 1297.15 1090.75 1319.48 1060.55 1345.75C1028.04 1374.01 1001.78 1407.38 980.572 1444.53C959.443 1481.71 942.91 1522.92 931.316 1563.19M1818.35 -18.7234C1715.82 55.9537 1656.15 175.111 1634.48 292.556C1613.28 407.378 1639.49 525.464 1638.46 643.957C1638.2 673.291 1632.52 704.057 1633.51 737.372C1634.88 784.787 1644.55 833.695 1652.27 879.019C1660.87 929.136 1666.73 976.829 1666 1025C1665.88 1030.86 1665.65 1036.75 1665.43 1042.65C1662.81 1098.65 1646.97 1157.26 1610 1200.77C1592.51 1221.38 1570.17 1238.72 1542.38 1250.17C1514.12 1261.86 1482.51 1267.15 1448.86 1268.02C1399.55 1269.23 1347.04 1261.63 1296.65 1260.87C1254.02 1260.21 1212.85 1265.05 1175.57 1277.48C1132.4 1292.02 1097.14 1316.09 1067.98 1343.79C1036.78 1373.5 1011.96 1408.02 991.424 1446.25C970.966 1484.52 954.187 1526.68 940.762 1566.68M1822.52 -18.9351C1723.25 56.1905 1662.65 173.445 1639.06 287.846C1616.18 398.854 1642.61 513.245 1636.87 627.571C1635.36 656.536 1627.26 686.955 1627.58 720.774C1628.03 768.669 1639.24 818.51 1648.86 864.134C1659.49 914.256 1667.88 961.46 1669.51 1009.69C1669.73 1015.6 1669.76 1021.52 1669.71 1027.41C1669.85 1083.81 1656.35 1143.35 1620.97 1188.44C1604.14 1209.95 1582.18 1228.26 1554.51 1240.64C1526.26 1253.3 1494.4 1259.54 1460.12 1260.84C1410.15 1262.73 1356.44 1255.05 1305.18 1254.26C1261.67 1253.58 1219.65 1258.31 1182.02 1271.56C1138.37 1286.95 1103.75 1312.79 1075.72 1341.95C1045.75 1373.08 1022.4 1408.86 1002.65 1448.14C982.893 1487.41 965.837 1530.6 950.58 1570.34M1826.7 -19.1466C1730.69 56.4275 1669.19 171.705 1643.6 283.211C1618.94 390.445 1645.56 501.216 1635.25 611.26C1632.52 639.961 1621.96 669.927 1621.65 704.175C1621.22 752.656 1633.96 803.431 1645.55 849.208C1658.19 899.229 1669.14 946.05 1673.07 994.31C1673.57 1000.17 1673.85 1006.11 1674.14 1012.06C1676.95 1068.82 1665.96 1129.29 1632.09 1176C1615.85 1198.38 1594.26 1217.64 1566.7 1230.95C1538.47 1244.59 1506.29 1251.75 1471.41 1253.59C1420.68 1256.2 1365.95 1248.43 1313.66 1247.55C1269.27 1246.84 1226.46 1251.57 1188.42 1265.53C1144.2 1281.82 1110.35 1309.32 1083.34 1339.97C1054.6 1372.52 1032.73 1409.56 1013.65 1449.93C994.565 1490.29 977.264 1534.43 960.174 1573.9M1830.87 -19.3585C1738.12 56.6641 1675.77 170.071 1648.18 278.501C1621.84 381.92 1648.22 489.237 1633.66 594.874C1629.72 623.312 1616.77 652.857 1615.79 687.609C1614.41 736.644 1628.72 788.277 1642.25 834.281C1656.96 884.234 1670.37 930.713 1676.69 978.96C1677.45 984.844 1678.1 990.769 1678.64 996.736C1684.2 1053.9 1675.59 1115.4 1643.28 1163.59C1627.73 1186.8 1606.48 1207.09 1578.97 1221.3C1550.82 1235.95 1518.32 1244.03 1482.81 1246.3C1431.34 1249.56 1375.59 1241.7 1322.29 1240.9C1277.03 1240.16 1233.45 1244.83 1194.98 1259.56C1150.25 1276.78 1117.06 1305.98 1091.13 1337.99C1063.63 1371.96 1043.28 1410.18 1024.86 1451.63C1006.45 1493.08 988.905 1538.17 970.058 1577.4M1835.05 -19.5703C1745.52 56.9747 1682.34 168.257 1652.72 273.865C1624.7 373.469 1631.53 475.892 1632.04 578.563C1621.66 605.522 1611.48 635.829 1609.86 671.01C1607.63 720.558 1623.37 773.166 1638.84 819.396C1655.58 869.354 1671.52 915.344 1680.14 963.619C1681.15 969.526 1682.05 975.474 1682.96 981.422C1691.3 1038.92 1685.07 1101.45 1654.29 1151.19C1639.4 1175.3 1618.52 1196.55 1591.13 1211.7C1563.03 1227.24 1530.18 1236.31 1494.11 1239.04C1441.9 1242.95 1385.09 1235.08 1330.77 1234.19C1284.56 1233.39 1240.18 1238.06 1201.34 1253.43C1156.07 1271.47 1123.59 1302.47 1098.71 1335.91C1072.44 1371.29 1053.57 1410.78 1035.86 1453.24C1018.22 1495.73 1000.32 1541.81 979.643 1580.78M1839.15 -19.8142C1752.88 57.1793 1688.88 166.517 1657.22 269.123C1627.64 364.871 1632.23 463.326 1630.33 562.039C1618.07 588.444 1606.1 618.589 1603.82 654.273C1600.63 704.375 1617.91 757.916 1635.35 804.299C1654.06 854.229 1672.59 899.763 1683.57 948.098C1684.95 953.986 1686.04 959.926 1687.2 965.897C1698.36 1023.83 1694.54 1087.32 1665.21 1138.57C1650.92 1163.56 1630.41 1185.76 1603.14 1201.84C1575.04 1218.36 1541.95 1228.38 1505.21 1231.62C1452.32 1236.29 1394.33 1228.25 1339.06 1227.3C1291.98 1226.48 1246.83 1231.08 1207.55 1247.22C1161.79 1266.19 1130 1298.82 1106.14 1333.76C1081.13 1370.49 1063.71 1411.31 1046.74 1454.89C1029.78 1498.47 1011.63 1545.5 989.122 1584.2M1843.32 -20.0259C1760.31 57.4161 1695.56 164.662 1661.76 264.487C1630.61 356.379 1632.91 450.834 1628.71 545.727C1614.6 571.504 1600.8 601.561 1597.96 637.707C1593.92 688.321 1612.67 742.763 1632.05 789.373C1652.82 839.234 1673.77 884.32 1687.09 932.789C1688.72 938.701 1690.14 944.696 1691.56 950.69C1705.47 1009.02 1704.06 1073.48 1676.34 1126.31C1662.7 1152.2 1642.57 1175.36 1615.41 1192.37C1587.41 1209.9 1553.91 1220.81 1516.54 1224.47C1462.92 1229.79 1403.88 1221.74 1347.62 1220.8C1299.67 1219.95 1253.72 1224.55 1214.04 1241.41C1167.7 1261.27 1136.57 1295.6 1113.91 1332.03C1090.14 1370.18 1074.23 1412.19 1057.93 1456.85C1041.67 1501.44 1023.25 1549.5 998.907 1587.93M1847.49 -20.2379C1767.75 57.6526 1702.31 162.839 1666.31 259.851C1633.66 347.919 1633.65 438.374 1627.09 529.416C1611.09 554.637 1595.51 584.533 1592 621.182C1587.01 672.35 1607.28 727.725 1628.6 774.561C1651.34 824.395 1674.86 869.098 1690.58 917.555C1692.47 923.489 1694.25 929.465 1695.92 935.483C1712.68 994.178 1713.65 1059.67 1687.38 1114.01C1674.41 1140.81 1654.66 1164.92 1627.54 1182.84C1599.55 1201.34 1565.73 1213.17 1527.77 1217.37C1473.41 1223.34 1413.32 1215.26 1356.04 1214.23C1307.21 1213.35 1260.39 1217.93 1220.38 1235.52C1173.53 1256.32 1143.11 1292.27 1121.5 1330.13C1098.88 1369.66 1084.52 1412.96 1068.93 1458.64C1053.34 1504.32 1034.68 1553.32 1008.61 1591.44M1851.67 -20.4495C1775.18 57.8895 1696.27 156.862 1670.88 255.141C1648.19 342.957 1634.36 425.809 1625.5 513.03C1607.7 537.73 1590.32 567.463 1586.1 604.509C1580.26 656.19 1601.89 712.508 1625.26 759.529C1649.96 809.335 1676.07 853.581 1694.09 902.066C1696.27 907.95 1698.27 914.023 1700.3 920.022C1719.81 979.119 1721.38 1044.87 1698.46 1101.46C1687.04 1129.55 1666.66 1154.28 1639.69 1173.05C1611.71 1192.52 1577.65 1205.3 1539.06 1209.93C1484.04 1216.59 1422.81 1208.46 1364.59 1207.37C1314.88 1206.46 1267.29 1210.97 1226.85 1229.35C1179.46 1250.96 1149.66 1288.69 1129.18 1328.01C1107.8 1368.96 1094.92 1413.52 1080.03 1460.21C1065.11 1506.97 1046.2 1556.93 1018.3 1594.78M1855.87 -20.7351C1782.57 58.02 1702.44 154.346 1675.38 250.399C1651.65 334.765 1635.06 413.243 1623.83 496.612C1604.15 520.758 1584.98 550.329 1580.17 587.911C1573.48 640.104 1596.54 697.396 1621.85 744.644C1648.52 794.423 1677.22 838.212 1697.61 886.757C1700.11 892.697 1702.41 898.719 1704.7 904.742C1727.06 964.199 1732.79 1031.76 1709.54 1089.09C1697.9 1117.7 1678.78 1143.77 1651.93 1163.47C1624.03 1183.96 1589.58 1197.62 1550.39 1202.79C1494.61 1210.17 1432.29 1201.92 1373.11 1200.77C1322.53 1199.83 1274.14 1204.34 1233.29 1223.42C1185.41 1245.97 1156.3 1285.32 1136.84 1326.14C1116.72 1368.43 1105.32 1414.26 1091.08 1462.1C1076.86 1509.87 1057.67 1560.86 1027.94 1598.44M1860.05 -20.9469C1790.01 58.2567 1708.69 151.863 1679.96 245.69C1655.16 326.679 1635.76 400.677 1622.24 480.227C1600.68 503.817 1579.72 533.227 1574.27 571.238C1566.63 623.985 1591.23 682.211 1618.58 729.644C1647.21 779.395 1678.51 822.728 1701.19 871.301C1703.99 877.189 1706.53 883.235 1709.05 889.355C1734.16 949.215 1742.38 1017.77 1720.58 1076.61C1709.6 1106.13 1690.85 1133.15 1664.05 1153.76C1636.16 1175.22 1601.46 1189.83 1561.64 1195.43C1505.13 1203.46 1441.78 1195.12 1381.52 1194.02C1330.06 1193.06 1280.83 1197.47 1239.55 1217.33C1191.09 1240.77 1163.61 1282.24 1144.31 1324.1C1124.38 1367.36 1115.51 1414.89 1102.04 1463.79C1088.49 1512.64 1069.13 1564.61 1037.49 1601.89M1864.22 -21.1585C1797.41 58.5675 1715.15 149.296 1684.5 241.054C1658.55 318.635 1636.51 388.217 1620.62 463.915C1597.17 486.952 1574.5 516.232 1568.31 554.714C1559.82 607.973 1585.77 667.141 1615.17 714.759C1645.84 764.515 1679.63 807.433 1704.71 855.992C1707.76 861.904 1710.64 868.005 1713.44 874.074C1741.41 934.295 1752.01 1003.88 1731.67 1064.24C1721.42 1094.7 1702.9 1122.61 1676.21 1144.15C1648.41 1166.61 1613.35 1182.04 1572.9 1188.25C1515.65 1196.93 1451.25 1188.57 1390.04 1187.41C1337.71 1186.42 1287.68 1190.84 1245.99 1211.4C1197.06 1235.7 1169.29 1278.45 1151.97 1322.23C1134.24 1367.33 1125.88 1415.71 1113.11 1465.61C1100.34 1515.51 1080.63 1568.47 1047.23 1605.52M1868.32 -21.4028C1804.77 58.7718 1736.56 153.41 1689 236.312C1649.67 304.894 1637.14 375.619 1618.99 447.424C1593.73 469.937 1569.19 499.023 1562.37 537.935C1553 591.781 1580.41 651.849 1611.75 699.694C1644.38 749.423 1680.7 791.851 1708.15 840.471C1711.53 846.438 1714.62 852.456 1717.75 858.581C1748.58 919.162 1761.52 989.859 1742.67 1051.66C1733.08 1083.02 1714.93 1111.89 1688.37 1134.36C1660.57 1157.8 1625.19 1174.15 1584.11 1180.78C1526.13 1190.11 1460.6 1181.7 1398.44 1180.49C1345.23 1179.47 1294.4 1183.89 1252.31 1205.16C1202.88 1230.38 1175.7 1274.8 1159.61 1320C1143.04 1366.48 1136.26 1416.08 1124.14 1467.14C1112.04 1518.13 1092.08 1572.04 1056.85 1608.82M1872.49 -21.6146C1812.2 59.0084 1743.6 151.536 1693.55 231.676C1653.08 296.415 1637.89 363.159 1617.37 431.112C1590.23 453.071 1563.9 481.995 1556.48 521.442C1546.26 575.801 1575.03 636.811 1608.42 684.841C1643.01 734.543 1681.93 776.514 1711.74 825.195C1715.41 831.111 1718.8 837.259 1722.22 843.332C1755.9 904.274 1771.29 976.038 1753.82 1039.32C1744.9 1071.59 1727.09 1101.49 1700.6 1124.79C1672.89 1149.23 1637.2 1166.5 1595.44 1173.63C1536.81 1183.65 1470.15 1175.19 1407 1173.99C1352.92 1172.94 1301.25 1177.26 1258.8 1199.34C1208.79 1225.46 1182.31 1271.51 1167.31 1318.24C1151.93 1366.03 1146.68 1417 1135.25 1469.07C1123.83 1521.14 1103.62 1576.01 1066.56 1612.52M1876.67 -21.8263C1819.63 59.2453 1750.82 149.653 1698.12 226.966C1656.6 287.896 1638.59 350.593 1615.78 414.727C1586.79 436.058 1558.64 464.893 1550.59 504.77C1539.41 559.682 1569.68 621.7 1605.07 669.809C1641.6 719.557 1683.14 760.998 1715.25 809.706C1719.18 815.646 1722.85 821.742 1726.53 827.839C1763.07 889.142 1780.84 961.941 1764.82 1026.74C1756.64 1059.94 1739.13 1090.77 1712.68 1114.97C1684.98 1140.38 1648.97 1158.57 1606.66 1166.17C1547.28 1176.84 1479.57 1168.35 1415.4 1167.06C1360.37 1165.95 1307.97 1170.31 1265.15 1193.03C1214.68 1220 1188.75 1267.79 1174.88 1315.97C1160.74 1365.19 1156.96 1417.41 1146.24 1470.5C1135.51 1523.58 1115.03 1579.47 1076.14 1615.71M1880.84 -22.0379C1827.07 59.4821 1758.01 147.844 1702.66 222.33C1660.27 279.44 1639.34 338.134 1614.15 398.415C1583.28 419.192 1553.41 447.898 1544.63 488.245C1532.6 543.67 1564.3 606.662 1601.63 654.998C1640.05 704.686 1684.23 745.777 1718.74 794.472C1722.92 800.434 1726.96 806.512 1730.86 812.706C1770.25 874.37 1790.47 948.236 1775.84 1014.52C1768.31 1048.63 1751.18 1080.41 1724.85 1105.54C1697.24 1131.96 1660.83 1151.03 1617.96 1159.1C1557.82 1170.49 1489.08 1161.91 1423.96 1160.56C1368.06 1159.42 1314.89 1163.71 1271.56 1187.18C1220.52 1215.04 1195.25 1264.53 1182.51 1314.18C1169.52 1364.78 1167.33 1418.22 1157.35 1472.43C1147.3 1526.6 1126.58 1583.44 1085.92 1619.44M1885.02 -22.2496C1834.5 59.7189 1765.35 146.099 1707.21 217.694C1663.9 271.059 1640.01 325.642 1612.53 382.103C1579.85 402.358 1548.12 430.87 1538.77 471.679C1525.86 527.69 1558.92 591.625 1598.33 640.071C1638.71 689.732 1685.49 730.366 1722.29 779.089C1726.83 785.033 1731.1 791.209 1735.29 797.351C1777.53 859.376 1800.13 934.277 1786.95 1002.07C1780.17 1037.12 1763.33 1069.82 1737.05 1095.86C1709.44 1123.26 1672.82 1143.2 1629.25 1151.84C1568.38 1163.89 1498.51 1155.26 1432.41 1153.92C1375.63 1152.76 1321.59 1157.01 1277.94 1181.22C1226.39 1210.02 1201.74 1261.1 1190.09 1312.28C1178.26 1364.26 1177.63 1419 1168.32 1474.29C1158.94 1529.54 1137.97 1587.34 1095.49 1623.07M1889.19 -22.4615C1841.93 59.9555 1772.76 144.387 1711.78 212.984C1667.61 262.71 1640.79 313.108 1610.94 365.718C1576.38 385.418 1542.93 413.8 1532.84 455.08C1519.08 511.604 1553.57 576.513 1595.03 625.145C1637.33 674.852 1686.67 714.923 1725.92 763.739C1730.72 769.706 1735.27 775.831 1739.79 782.029C1784.81 844.381 1809.94 920.382 1798.14 989.662C1792.05 1025.54 1775.45 1059.31 1749.31 1086.21C1721.8 1114.61 1684.78 1135.45 1640.65 1144.55C1579.05 1157.24 1508.12 1148.6 1441 1147.16C1383.35 1145.97 1328.54 1150.16 1284.45 1175.15C1232.36 1204.76 1208.34 1257.62 1197.93 1310.22C1187.25 1363.59 1188.17 1419.62 1179.57 1475.92C1170.97 1532.22 1149.64 1591 1105.33 1626.47M1893.36 -22.6731C1849.33 60.2663 1780.29 142.814 1716.32 208.349C1671.39 254.393 1641.46 300.616 1609.32 349.406C1572.88 368.552 1537.63 396.772 1526.91 438.482C1512.27 495.592 1548.12 561.444 1591.62 610.26C1635.86 660.014 1687.82 699.554 1729.36 748.398C1734.42 754.389 1739.33 760.495 1744.03 766.684C1791.91 829.397 1819.42 906.432 1809.08 977.227C1803.72 1014.04 1787.42 1048.74 1761.4 1076.56C1733.89 1105.95 1696.56 1127.7 1651.76 1137.3C1589.43 1150.65 1517.48 1141.91 1449.37 1140.49C1390.85 1139.27 1335.24 1143.47 1290.74 1169.16C1238.15 1199.7 1214.76 1254.15 1205.44 1308.29C1195.92 1363.04 1198.43 1420.29 1190.5 1477.68C1182.57 1535.06 1161 1594.8 1114.88 1629.93M1897.46 -22.9173C1856.69 60.4706 1787.79 141.314 1720.83 203.606C1675.17 246.077 1642.16 288.05 1607.69 332.915C1569.36 351.506 1532.33 379.564 1520.94 421.777C1505.38 479.367 1542.73 546.226 1588.2 595.195C1634.4 644.922 1688.93 684.079 1732.87 732.909C1738.21 738.849 1743.35 745.052 1748.38 751.297C1799.15 814.297 1829.08 892.473 1820.12 964.75C1815.42 1002.47 1799.5 1038.12 1773.52 1066.85C1746.1 1097.24 1708.4 1119.81 1663.01 1129.94C1599.98 1143.87 1526.87 1135.15 1457.78 1133.75C1398.38 1132.5 1341.9 1136.67 1297.07 1163.1C1243.9 1194.54 1221.18 1250.69 1212.98 1306.28C1204.62 1362.42 1208.68 1420.96 1201.46 1479.36C1194.23 1537.76 1172.38 1598.52 1124.51 1633.41M1901.64 -23.1289C1864.13 60.7075 1795.47 139.985 1725.37 198.971C1679.04 237.973 1642.83 275.558 1606.06 316.603C1565.93 334.672 1527.18 362.601 1515.08 405.21C1498.82 463.378 1537.34 531.188 1584.86 580.343C1633 630.116 1690.16 668.742 1736.39 717.601C1742.06 723.596 1747.49 729.748 1752.78 736.016C1806.4 799.377 1838.81 878.547 1831.2 952.38C1827.24 991.038 1811.62 1027.62 1785.76 1057.27C1758.35 1088.64 1720.33 1112.12 1674.35 1122.8C1610.58 1137.37 1536.41 1128.64 1466.38 1127.17C1406.1 1125.9 1348.85 1129.99 1303.59 1157.21C1249.96 1189.5 1227.79 1247.39 1220.71 1304.44C1213.55 1361.89 1219.2 1421.84 1212.65 1481.32C1206.09 1540.8 1184 1602.51 1134.29 1637.14M1905.81 -23.3409C1871.49 60.9116 1803.2 138.762 1729.94 194.261C1682.91 229.868 1643.61 263.025 1604.4 300.185C1562.42 317.625 1521.85 345.466 1509.08 388.579C1491.86 447.301 1531.89 516.118 1581.41 565.351C1631.47 615.171 1691.27 653.267 1739.87 702.186C1745.83 708.13 1751.51 714.305 1757.13 720.629C1813.61 784.35 1848.47 864.587 1842.24 939.904C1838.98 979.393 1823.69 1017 1797.88 1047.56C1770.55 1079.93 1732.21 1104.33 1685.6 1115.44C1621.1 1130.66 1545.87 1121.91 1474.82 1120.35C1413.67 1119.05 1355.62 1123.15 1309.88 1151.04C1255.67 1184.23 1234.16 1243.82 1228.25 1302.25C1222.21 1361.17 1229.48 1422.26 1223.6 1482.82C1217.71 1543.39 1195.37 1606.05 1143.84 1640.41M1909.98 -23.5524C1878.92 61.1487 1811.01 137.753 1734.49 189.625C1686.78 221.944 1649.01 257.262 1602.78 283.874C1562.03 307.318 1516.55 328.438 1503.15 371.981C1485.08 431.215 1526.43 501.048 1578.04 550.393C1630.06 600.185 1692.42 637.898 1743.35 686.771C1749.56 692.739 1755.58 698.97 1761.41 705.21C1820.78 769.218 1858.06 850.596 1853.21 927.395C1850.68 967.822 1835.74 1006.46 1809.92 1037.81C1782.68 1071.19 1743.98 1096.41 1696.74 1108.12C1631.51 1124 1555.23 1115.23 1483.15 1113.58C1421.12 1112.24 1362.23 1116.24 1316.14 1144.94C1261.42 1179.06 1240.51 1240.32 1235.72 1300.21C1230.91 1360.54 1239.67 1422.9 1234.48 1484.47C1229.3 1546.05 1206.68 1609.74 1153.32 1643.83M1914.16 -23.7642C1886.35 61.3854 1818.72 136.964 1739.03 184.989C1690.7 214.126 1648.39 243.68 1601.15 267.562C1557.82 289.44 1511.33 311.443 1497.26 355.488C1478.31 415.309 1521.13 486.043 1574.67 535.614C1628.62 585.453 1693.54 622.603 1746.91 671.569C1753.38 677.559 1759.68 683.74 1765.84 690.035C1828.07 754.404 1867.73 836.817 1864.33 915.131C1862.54 956.496 1847.82 996.025 1822.2 1028.34C1795.04 1062.73 1755.95 1088.83 1708.15 1101C1642.19 1117.53 1564.78 1108.71 1491.79 1107.11C1428.89 1105.75 1369.2 1109.75 1322.73 1139.08C1267.47 1174.02 1247.22 1236.98 1243.6 1298.44C1239.95 1360.16 1250.26 1423.8 1245.75 1486.47C1241.24 1549.13 1218.38 1613.77 1163.25 1647.62M1918.33 -23.9759C1893.75 61.6961 1826.55 136.314 1743.61 180.279C1694.54 206.276 1647.95 229.909 1599.56 251.177C1553.64 271.309 1506.07 294.341 1491.36 338.816C1471.57 399.149 1515.7 470.899 1571.32 520.581C1627.21 570.467 1694.76 607.086 1750.42 656.08C1757.25 662.052 1763.81 668.256 1770.19 674.648C1835.23 739.272 1877.42 822.784 1875.45 902.687C1874.36 944.883 1859.97 985.442 1834.4 1018.66C1807.25 1054.02 1767.91 1081.07 1719.4 1093.65C1652.75 1110.93 1574.24 1101.98 1500.23 1100.29C1436.45 1098.9 1375.96 1102.91 1329.09 1132.95C1273.34 1168.82 1253.67 1233.44 1251.18 1296.36C1248.69 1359.46 1260.58 1424.33 1256.74 1488.07C1252.9 1551.82 1229.79 1617.42 1172.84 1651M1922.54 -24.2615C1901.22 61.859 1834.34 135.738 1748.18 175.57C1698.39 198.606 1647.75 215.98 1597.97 234.791C1549.59 253.062 1500.8 277.239 1485.43 322.217C1464.68 383.104 1510.18 455.977 1568.02 505.655C1625.77 555.735 1696.01 591.675 1754.04 640.73C1761.14 646.725 1768.05 652.91 1774.69 659.326C1842.73 724.195 1887.23 808.89 1886.64 890.275C1886.28 933.409 1872.2 974.891 1846.67 1009.01C1819.6 1045.37 1779.87 1073.32 1730.77 1086.42C1663.38 1104.36 1583.85 1095.32 1508.86 1093.64C1444.17 1092.12 1382.87 1096.13 1335.64 1126.98C1279.31 1163.75 1260.21 1230.11 1258.94 1294.45C1257.54 1358.91 1271.06 1425.09 1268 1489.89C1264.94 1554.68 1241.55 1621.3 1182.69 1654.58M1926.64 -24.5058C1908.58 62.0632 1841.93 135.425 1752.68 170.827C1702.09 190.871 1647.69 201.936 1596.31 218.373C1545.46 234.602 1495.47 260.105 1479.46 305.512C1457.86 366.912 1504.79 440.759 1564.57 490.664C1624.29 540.716 1697.09 576.274 1757.45 625.282C1764.79 631.301 1771.97 637.509 1778.97 643.906C1849.79 709.103 1896.92 794.856 1897.61 877.766C1898.02 921.764 1884.2 964.244 1858.79 999.296C1831.73 1036.63 1791.68 1065.5 1742.02 1079.06C1673.9 1097.65 1593.31 1088.59 1517.26 1086.89C1451.7 1085.34 1389.61 1089.36 1341.9 1120.89C1285.1 1158.5 1266.59 1226.54 1266.45 1292.34C1266.2 1358.18 1281.27 1425.66 1278.92 1491.46C1276.52 1557.34 1252.89 1624.91 1192.2 1657.92M1930.81 -24.7174C1916.01 62.3001 1849.6 135.325 1757.22 166.192C1705.7 183.358 1647.89 187.916 1594.72 201.988C1541.55 216.06 1490.28 243.035 1473.64 288.872C1451.16 350.858 1499.55 425.606 1561.3 475.663C1623.05 525.721 1698.38 560.789 1761.1 609.859C1846.93 677.002 1906.47 772.562 1908.72 865.322C1910.97 958.083 1850.92 1044.54 1753.31 1071.81C1625.09 1107.71 1452.16 1045.17 1348.38 1114.89C1291 1153.4 1273.23 1223.17 1274.14 1290.39C1275.12 1357.65 1291.71 1426.32 1289.99 1493.28C1288.27 1560.25 1264.39 1628.77 1201.94 1661.55" stroke="url(#paint0_linear_17_6)" stroke-opacity="0.6" stroke-width="0.5" stroke-miterlimit="10"/>
<path d="M313.788 3248.19C352.617 3108.87 309.024 2952.87 257.387 2805.01C205.75 2657.15 144.965 2506.72 149.046 2359.18C152.513 2234.82 203.964 2117.81 293.617 2030.63C385.944 1940.81 513.968 1884.66 631.157 1818.96C748.345 1753.25 860.989 1671.21 902.289 1552.7M307.159 3246.55C348.42 3109.34 308.113 2954.32 258.507 2807.08C208.901 2659.84 149.338 2509.86 152.753 2362.82C155.316 2245.29 199.046 2134.1 277.416 2047.56C282.424 2042.07 287.473 2036.68 292.745 2031.39C338.419 1985.39 393.489 1947.79 452.771 1914.49C511.056 1881.63 572.711 1852.97 631.676 1821.39C751.007 1757.85 864.985 1674.79 905.646 1555.13M300.496 3244.97C344.263 3109.91 307.094 2955.82 259.626 2809.15C212.159 2662.49 153.785 2513.02 156.46 2366.45C158.27 2248.42 200.067 2136.39 276.883 2048.56C281.742 2043.01 286.749 2037.51 291.98 2032.12C336.884 1985.25 391.612 1946.62 451.572 1913.79C510.279 1881.38 572.549 1854.14 632.194 1823.81C753.437 1762.16 869.013 1678.3 909.077 1557.59M293.867 3243.33C340.14 3110.41 306.183 2957.27 260.854 2811.18C215.525 2665.09 158.341 2516.15 160.199 2370.02C161.257 2251.48 201.122 2138.61 276.308 2049.46C281.126 2043.8 286.017 2038.17 291.099 2032.7C335.233 1984.98 389.662 1945.42 450.291 1912.88C509.42 1880.92 572.346 1855.2 632.63 1826.03C755.9 1766.41 872.925 1681.68 912.425 1559.84M287.238 3241.68C335.91 3110.95 305.197 2958.7 261.974 2813.26C218.75 2667.82 163.151 2519.29 163.906 2373.66C164.501 2254.57 202.144 2140.91 275.775 2050.46C280.444 2044.74 285.294 2039 290.227 2033.47C333.559 1984.95 387.646 1944.37 448.911 1912.19C508.462 1880.68 572.045 1856.48 632.967 1828.47C758.265 1770.87 876.739 1685.27 915.567 1562.35M280.608 3240.04C331.786 3111.45 304.285 2960.15 263.126 2815.26C221.967 2670.36 167.664 2522.31 167.604 2377.11C167.553 2257.48 203.189 2142.95 275.232 2051.29C279.785 2045.42 284.561 2039.65 289.453 2034.02C332.014 1984.64 385.844 1943.24 447.704 1911.32C507.719 1880.36 571.957 1857.67 633.551 1830.75C760.876 1775.18 880.799 1688.71 919.063 1564.66M273.946 3238.46C327.556 3112 303.267 2961.65 264.246 2817.33C225.225 2673.01 172.187 2525.51 171.31 2380.75C170.615 2260.57 204.211 2145.24 274.7 2052.29C279.178 2046.39 283.838 2040.48 288.614 2034.71C330.406 1984.47 383.861 1942.11 446.464 1910.51C506.901 1880 571.796 1858.84 634.029 1833.07C763.348 1779.6 884.753 1692.19 922.453 1567.01M267.317 3236.82C323.432 3112.5 302.356 2963.1 265.44 2819.44C228.525 2675.77 176.709 2528.71 175.091 2384.42C173.718 2263.77 205.306 2147.57 274.166 2053.29C278.529 2047.25 283.114 2041.31 287.816 2035.51C328.838 1984.4 381.994 1941.12 445.233 1909.89C506.059 1879.9 571.643 1860.18 634.482 1835.65C765.902 1784.24 888.608 1695.9 925.744 1569.59M260.688 3235.17C319.309 3113 301.337 2964.6 266.593 2821.43C231.849 2678.27 181.222 2531.73 178.757 2387.95C176.664 2266.73 206.287 2149.76 273.592 2054.19C277.88 2048.12 282.35 2042.04 286.935 2036.1C327.187 1984.13 380.002 1939.82 443.952 1908.98C505.2 1879.44 571.514 1861.27 634.917 1837.87C768.44 1788.51 892.554 1699.2 929.092 1571.84M254.058 3233.53C315.112 3113.47 300.426 2966.06 267.746 2823.43C235.065 2680.81 185.777 2534.85 182.496 2391.52C179.758 2269.75 207.341 2151.98 273.091 2055.12C277.263 2048.91 281.659 2042.79 286.203 2036.75C325.652 1983.99 378.125 1938.65 442.786 1908.21C504.457 1879.12 571.394 1862.54 635.543 1840.25C771.134 1793.03 896.656 1702.74 932.523 1574.3M247.429 3231.88C310.988 3113.97 299.44 2967.48 268.972 2825.47C238.505 2683.45 190.331 2537.98 186.268 2395C182.777 2272.73 208.427 2154.13 272.549 2055.94C276.647 2049.7 280.926 2043.45 285.321 2037.33C324.075 1983.74 376.174 1937.45 441.504 1907.3C503.597 1878.66 571.265 1863.63 635.978 1842.47C773.638 1797.38 900.567 1706.12 935.87 1576.54M240.767 3230.31C306.758 3114.51 298.496 2969.01 270.06 2827.61C241.623 2686.22 194.747 2541.22 189.942 2398.72C185.807 2275.9 209.491 2156.53 271.983 2057.01C275.965 2050.63 280.17 2044.35 284.524 2038.13C322.508 1983.68 374.233 1936.43 440.274 1906.68C502.788 1878.48 571.154 1865.08 636.465 1844.97C776.226 1801.94 904.53 1709.78 939.268 1579.08M234.138 3228.66C302.602 3115.08 297.51 2970.43 271.212 2829.61C244.914 2688.79 199.227 2544.31 193.682 2402.28C188.827 2278.89 210.545 2158.75 271.483 2057.94C275.39 2051.53 279.405 2045.08 283.718 2038.75C320.932 1983.44 372.357 1935.26 439.034 1905.88C501.971 1878.13 571.067 1866.28 636.942 1847.3C778.846 1806.43 908.484 1713.26 942.584 1581.4M227.508 3227.02C298.478 3115.58 296.599 2971.89 272.439 2831.64C248.28 2691.4 203.815 2547.36 197.421 2405.84C191.888 2281.98 211.6 2160.97 270.908 2058.84C274.7 2052.29 278.64 2045.8 282.804 2039.41C319.248 1983.23 370.299 1934.1 437.72 1905.04C501.078 1877.74 570.873 1867.51 637.419 1849.62C781.392 1810.89 912.438 1716.74 945.973 1583.75M220.879 3225.37C294.281 3116.05 295.613 2973.31 273.559 2833.72C251.505 2694.12 208.262 2550.53 201.127 2409.48C194.875 2285.04 212.654 2163.19 270.374 2059.84C274.017 2053.23 277.917 2046.63 282.039 2040.14C317.681 1983.17 368.39 1933.01 436.521 1904.34C500.302 1877.49 570.753 1868.78 637.937 1852.05C784.021 1815.55 916.466 1720.25 949.404 1586.21M214.249 3223.72C290.157 3116.55 294.701 2974.76 274.711 2835.72C254.721 2696.67 212.743 2553.62 204.825 2412.94C197.821 2287.99 213.666 2165.31 269.832 2060.66C273.434 2053.94 277.184 2047.29 281.19 2040.65C316.062 1982.82 366.505 1931.66 435.273 1903.36C499.475 1876.95 570.624 1869.87 638.406 1854.19C786.558 1819.83 920.41 1723.55 952.677 1588.43M207.587 3222.15C285.927 3117.09 293.758 2976.29 275.832 2837.79C257.906 2699.28 217.116 2556.75 208.532 2416.58C200.808 2291.05 214.688 2167.6 269.299 2061.67C272.752 2054.88 276.461 2048.12 280.393 2041.45C314.495 1982.75 364.564 1930.64 434.042 1902.74C498.667 1876.78 570.513 1871.32 638.892 1856.69C789.187 1824.5 924.373 1727.21 956.075 1590.96M200.958 3220.51C281.804 3117.59 292.772 2977.72 277.026 2839.89C261.28 2702.07 221.639 2559.95 212.313 2420.25C203.837 2294.22 215.784 2169.93 268.766 2062.67C272.177 2055.78 275.738 2048.95 279.553 2042.14C312.886 1982.58 362.581 1929.52 432.802 1901.93C497.849 1876.42 570.393 1872.59 639.443 1859.05C791.849 1829.09 928.401 1730.72 959.539 1593.35M194.328 3218.86C277.68 3118.09 291.827 2979.24 278.178 2841.89C264.529 2704.54 226.118 2563.04 215.978 2423.78C206.782 2297.17 216.764 2172.12 268.191 2063.56C271.453 2056.61 274.972 2049.67 278.713 2042.84C311.276 1982.41 360.597 1928.39 431.529 1901.21C496.923 1876.11 570.314 1873.97 639.887 1861.44C794.403 1833.73 932.322 1734.28 962.821 1595.74M187.625 3217.18C273.408 3118.53 290.768 2980.64 279.257 2843.86C267.746 2707.08 230.451 2566.07 219.643 2427.31C209.77 2300.24 217.744 2174.3 267.616 2064.46C270.837 2057.4 274.207 2050.4 277.833 2043.42C309.593 1982.21 358.68 1927.12 430.215 1900.37C496.032 1875.72 570.12 1875.21 640.29 1863.73C796.916 1838.26 936.127 1737.69 966.136 1598.07M180.995 3215.54C269.285 3119.03 289.856 2982.09 280.483 2845.89C271.111 2709.69 235.005 2569.2 223.415 2430.8C212.748 2303.12 218.831 2176.45 267.074 2065.28C270.146 2058.16 273.475 2051.05 276.984 2043.94C307.975 1981.86 356.687 1925.81 428.892 1899.35C495.13 1875.16 569.917 1876.27 640.684 1865.84C799.42 1842.61 940.03 1740.89 969.442 1600.21M174.333 3213.96C265.022 3119.65 288.838 2983.59 281.571 2848.04C274.304 2712.49 239.346 2572.4 227.089 2434.51C215.67 2306.32 219.82 2178.82 266.508 2066.36C269.465 2059.09 272.719 2051.96 276.154 2044.81C306.375 1981.87 354.713 1924.86 427.628 1898.81C494.322 1874.98 569.773 1877.79 641.212 1868.45C802.059 1847.45 944.034 1744.65 972.775 1602.89M167.704 3212.32C260.898 3120.15 287.926 2985.04 282.723 2850.04C277.52 2715.03 243.826 2575.5 230.829 2438.07C218.657 2309.38 220.874 2181.04 266.007 2067.29C268.89 2059.99 272.06 2052.64 275.347 2045.43C304.798 1981.63 352.795 1923.59 426.421 1897.93C493.537 1874.55 569.686 1878.99 641.722 1870.7C804.753 1851.97 948.021 1748.06 976.197 1605.17M161.075 3210.67C256.775 3120.65 286.941 2986.46 283.876 2852.04C280.812 2717.61 248.2 2578.63 234.494 2441.61C221.603 2312.34 221.887 2183.16 265.392 2068.08C268.158 2060.64 271.254 2053.26 274.499 2045.94C303.181 1981.28 350.804 1922.28 425.14 1897.02C492.603 1874.06 569.525 1880.15 642.158 1872.92C807.266 1856.5 951.933 1751.44 979.545 1607.42M154.445 3209.03C252.577 3121.12 286.029 2987.92 285.07 2854.14C284.111 2720.36 252.647 2581.8 238.275 2445.28C224.557 2315.47 222.982 2185.48 264.932 2069.11C267.624 2061.64 270.53 2054.09 273.701 2046.74C301.654 1981.32 348.969 1921.22 423.941 1896.32C491.827 1873.81 569.446 1881.53 642.676 1875.35C809.895 1861.17 955.928 1755.02 982.901 1609.84M147.816 3207.38C248.454 3121.62 285.043 2989.34 286.223 2856.14C287.402 2722.94 257.128 2584.89 241.973 2448.73C227.503 2318.43 223.995 2187.6 264.39 2069.93C266.966 2062.33 269.798 2054.74 272.927 2047.29C300.111 1981 346.935 1919.81 422.735 1895.45C491.033 1873.2 569.4 1882.83 643.26 1877.63C812.631 1865.8 959.989 1758.46 986.398 1612.16M141.154 3205.81C244.223 3122.16 284.099 2990.87 287.343 2858.21C290.586 2725.56 261.501 2588.02 245.679 2452.37C230.457 2321.56 225.017 2189.89 263.782 2070.9C266.284 2063.26 269 2055.54 272.013 2047.95C298.427 1980.8 344.984 1918.61 421.42 1894.61C490.066 1872.78 569.206 1884.07 643.663 1879.92C815.111 1870.4 963.901 1761.83 989.713 1614.48M134.524 3204.16C240.1 3122.66 283.113 2992.29 288.537 2860.32C293.96 2728.34 265.916 2591.26 249.46 2456.04C233.412 2324.7 226.113 2192.22 263.324 2071.94C265.709 2064.16 268.351 2056.41 271.216 2048.75C296.859 1980.73 343.043 1917.59 420.189 1893.99C489.257 1872.6 569.062 1885.59 644.149 1882.42C817.675 1875.22 967.863 1765.5 993.004 1617.05M127.895 3202.52C235.977 3123.16 282.17 2993.82 289.69 2862.32C297.21 2730.81 270.109 2594.41 253.126 2459.57C236.069 2327.7 227.093 2194.41 262.749 2072.83C265.061 2065.02 267.586 2057.13 270.409 2049.37C295.283 1980.49 341.093 1916.39 418.95 1893.18C488.44 1872.25 568.942 1886.86 644.626 1884.75C820.304 1879.88 971.817 1768.98 996.394 1619.41M121.265 3200.87C231.779 3123.63 281.183 2995.25 290.842 2864.32C300.501 2733.39 274.514 2597.46 256.865 2463.13C239.13 2330.8 228.147 2196.63 262.248 2073.76C264.444 2065.81 266.895 2057.89 269.602 2049.99C293.674 1980.32 339.216 1915.22 417.742 1892.31C487.655 1871.82 568.863 1888.24 645.177 1887.1C822.918 1884.99 975.845 1772.49 999.782 1621.76M114.604 3199.3C227.59 3124.28 280.24 2996.78 292.037 2866.42C303.834 2736.07 279.037 2600.66 260.604 2466.7C242.151 2333.78 229.276 2198.88 261.674 2074.66C263.721 2066.65 266.13 2058.61 268.763 2050.68C292.065 1980.15 337.266 1914.02 416.47 1891.58C486.804 1871.54 568.711 1889.58 645.622 1889.5C825.431 1889.51 979.692 1776.01 1003.14 1624.19M107.974 3197.65C223.392 3124.74 279.254 2998.2 293.156 2868.5C307.059 2738.79 283.517 2603.76 264.311 2470.34C245.105 2336.92 230.297 2201.18 261.14 2075.66C280.817 1995.71 326.273 1915.42 415.23 1890.77C485.986 1871.18 568.591 1890.85 646.099 1891.82C828.018 1894.08 983.645 1779.49 1006.53 1626.54M103.8 3197.87C216.033 3124.54 272.815 2999.72 288.616 2873.13C304.336 2747.13 279.958 2616.58 265.943 2486.65C262.659 2455.87 260.8 2424.47 257.966 2392.48C253.804 2346.69 248.866 2300.65 246.753 2255.84C244.45 2205.65 245.806 2156.61 253.574 2108.51C254.489 2102.65 255.585 2096.78 256.756 2090.94C267.391 2035.98 290.506 1980.27 332.134 1941.59C351.483 1923.55 374.977 1909.16 403.041 1900.46C431.426 1891.64 462.05 1889.17 493.804 1889.74C540.929 1890.64 590.184 1897.94 637.622 1898.54C677.634 1899.08 716.36 1894.14 752.388 1883.87C793.939 1871.96 831.37 1853.14 863.622 1829.6C898.624 1804.26 927.859 1773.33 950.342 1738.23C972.9 1703.16 988.812 1663.89 996.792 1623.11M99.7014 3198.11C208.707 3124.27 266.419 3001.35 284.118 2877.88C301.614 2755.47 276.507 2629.36 267.618 2503.06C265.49 2472.88 266.148 2441.61 263.948 2409.18C260.708 2362.91 254.191 2315.83 250.213 2270.82C245.766 2220.68 244.705 2172.09 250.18 2123.96C250.839 2118.08 251.647 2112.26 252.487 2106.37C260.523 2051.07 281.152 1994.36 321.207 1954.03C339.969 1935.12 363.014 1919.74 390.959 1910.11C419.259 1900.28 450.276 1896.92 482.623 1896.96C530.513 1897.14 580.866 1904.56 629.178 1905.18C670.065 1905.76 709.632 1900.91 746.021 1889.83C788.114 1877.09 824.764 1856.44 856.005 1831.58C889.732 1804.71 917.455 1772.6 939.341 1736.45C961.152 1700.26 977.384 1660.07 987.196 1619.55M95.5277 3198.33C201.273 3124.04 259.915 3003.02 279.578 2882.52C298.901 2763.99 273.154 2641.92 269.217 2519.45C268.279 2489.78 271.346 2458.67 269.813 2425.75C267.455 2378.89 259.4 2330.87 253.524 2285.75C247.039 2235.6 243.456 2187.5 246.563 2139.31C246.966 2133.41 247.444 2127.53 247.996 2121.69C253.25 2066.06 271.542 2008.43 310.025 1966.45C328.091 1946.7 350.869 1930.33 378.696 1919.77C406.952 1909.04 438.247 1904.65 471.228 1904.26C519.775 1903.75 571.259 1911.22 620.594 1911.94C662.355 1912.54 702.723 1907.69 739.588 1895.94C782.182 1882.27 818.166 1859.92 848.356 1833.63C880.85 1805.35 907.091 1771.97 928.273 1734.81C949.38 1697.62 965.889 1656.4 977.459 1616.12M91.3543 3198.54C193.84 3123.81 253.444 3004.61 275.038 2887.16C296.179 2772.32 269.899 2654.25 270.85 2535.76C271.093 2506.42 276.759 2475.66 275.753 2442.34C274.35 2394.93 264.651 2346.03 256.91 2300.71C248.28 2250.59 242.388 2202.9 243.095 2154.73C243.209 2148.88 243.431 2142.98 243.653 2137.08C246.233 2081.09 262.039 2022.46 298.991 1978.93C316.469 1958.31 338.798 1940.96 366.582 1929.49C394.827 1917.79 426.44 1912.48 460.088 1911.58C509.4 1910.35 561.907 1917.92 612.298 1918.65C654.934 1919.28 696.102 1914.42 733.37 1901.97C776.538 1887.4 811.783 1863.31 840.921 1835.6C872.107 1805.87 896.91 1771.34 917.42 1733.09C937.856 1694.81 954.609 1652.64 968.011 1612.63M87.1805 3198.76C186.406 3123.57 246.94 3006.28 270.466 2891.87C293.284 2780.85 266.784 2666.47 272.45 2552.14C273.947 2523.18 282.032 2492.75 281.692 2458.94C281.212 2411.04 269.976 2361.21 260.328 2315.59C249.661 2265.47 241.246 2218.27 239.585 2170.04C239.369 2164.13 239.335 2158.21 239.375 2152.32C239.208 2095.93 252.675 2036.37 288.023 1991.26C304.838 1969.75 326.793 1951.43 354.459 1939.03C382.692 1926.35 414.55 1920.1 448.832 1918.77C498.802 1916.86 552.514 1924.5 603.779 1925.26C647.29 1925.92 689.299 1921.16 726.928 1907.89C770.564 1892.48 805.176 1866.61 833.188 1837.44C863.14 1806.29 886.463 1770.5 906.195 1731.21C925.926 1691.92 942.957 1648.73 958.191 1608.98M83.0064 3198.97C178.972 3123.34 240.402 3008.03 265.925 2896.51C290.528 2789.26 263.841 2678.5 274.082 2568.45C276.793 2539.75 287.337 2509.78 287.632 2475.53C288.032 2427.05 275.259 2376.28 263.639 2330.51C250.976 2280.5 239.996 2233.68 236.042 2185.43C235.537 2179.57 235.248 2173.62 234.958 2167.68C232.116 2110.91 243.065 2050.44 276.914 2003.71C293.141 1981.32 314.722 1962.05 342.269 1948.72C370.492 1935.07 402.669 1927.89 437.543 1926.03C488.278 1923.39 543.013 1931.13 595.302 1931.98C639.687 1932.67 682.497 1927.9 720.527 1913.93C764.738 1897.61 798.578 1870.09 825.571 1839.42C854.29 1806.86 876.132 1769.81 895.192 1729.43C914.252 1689.06 931.528 1644.91 948.594 1605.43M78.8328 3199.18C171.539 3123.11 233.824 3009.67 261.352 2901.22C287.633 2797.79 261.188 2690.48 275.681 2584.84C279.606 2556.4 292.536 2526.85 293.497 2492.09C294.853 2443.06 280.51 2391.43 266.951 2345.44C252.217 2295.49 238.78 2249.02 232.425 2200.78C231.665 2194.9 231.012 2188.97 230.466 2183C224.876 2125.84 233.446 2064.34 265.732 2016.13C281.263 1992.91 302.503 1972.61 330.006 1958.38C358.143 1943.72 390.639 1935.62 426.147 1933.33C477.615 1930.04 533.373 1937.87 586.676 1938.64C631.936 1939.35 675.513 1934.65 713.978 1919.9C758.689 1902.65 791.865 1873.43 817.773 1841.41C845.258 1807.43 865.587 1769.19 883.976 1727.73C902.365 1686.27 919.885 1641.17 938.709 1601.93M74.6594 3199.4C164.138 3122.8 227.255 3011.48 256.813 2905.86C284.771 2806.24 277.883 2703.82 277.314 2601.15C287.678 2574.18 297.842 2543.87 299.437 2508.69C301.641 2459.14 285.868 2406.54 270.369 2360.32C253.598 2310.37 237.638 2264.39 228.989 2216.12C227.973 2210.22 227.065 2204.27 226.156 2198.32C217.785 2140.83 223.976 2078.29 254.731 2028.54C269.599 2004.41 290.465 1983.16 317.85 1967.99C345.944 1952.43 378.791 1943.34 414.859 1940.59C467.059 1936.65 523.873 1944.49 578.199 1945.35C624.408 1946.12 668.785 1941.43 707.62 1926.04C752.873 1907.97 785.342 1876.95 810.198 1843.5C836.45 1808.1 855.298 1768.6 872.983 1726.13C890.593 1683.62 908.465 1637.53 929.122 1598.56M70.5597 3199.64C156.778 3122.6 220.718 3013.23 252.314 2910.6C281.843 2814.84 277.186 2716.39 279.029 2617.67C291.276 2591.26 303.23 2561.11 305.492 2525.42C308.651 2475.32 291.341 2421.79 273.87 2375.42C255.135 2325.5 236.579 2279.97 225.562 2231.64C224.183 2225.76 223.093 2219.82 221.929 2213.85C210.735 2155.92 214.514 2092.43 243.813 2041.16C258.093 2016.16 278.585 1993.95 305.851 1977.85C333.933 1961.32 367.026 1951.28 403.76 1948.02C456.651 1943.32 514.637 1951.32 569.912 1952.24C616.995 1953.04 662.14 1948.41 701.409 1932.24C747.163 1913.25 778.934 1880.6 802.771 1845.65C827.757 1808.9 845.158 1768.07 862.096 1724.48C879.035 1680.9 897.152 1633.85 919.641 1595.14M66.386 3199.86C149.345 3122.37 214.041 3015.09 247.774 2915.24C278.874 2823.33 276.522 2728.88 280.662 2633.98C294.758 2608.2 308.536 2578.13 311.357 2541.99C315.364 2491.37 296.591 2436.94 277.182 2390.34C256.376 2340.49 235.403 2295.42 222.052 2246.96C220.417 2241.04 218.997 2235.05 217.577 2229.06C203.634 2170.73 205.002 2106.28 232.696 2053.43C246.313 2027.53 266.431 2004.36 293.579 1987.33C321.576 1969.79 355.062 1958.86 392.43 1955.18C446.053 1949.82 505.095 1957.84 561.352 1958.75C609.309 1959.57 655.254 1954.94 694.926 1938.06C741.254 1918.17 772.361 1883.82 794.996 1847.38C818.749 1809.22 834.637 1767.2 850.904 1722.53C867.139 1677.93 885.533 1629.86 909.854 1591.42M62.2126 3200.07C141.911 3122.14 207.29 3016.91 243.234 2919.88C275.83 2831.79 275.784 2741.34 282.294 2650.29C298.273 2625.06 313.842 2595.16 317.33 2558.51C322.292 2507.34 301.982 2451.97 280.633 2405.15C257.864 2355.33 234.327 2310.64 218.575 2262.19C216.684 2256.26 214.901 2250.28 213.225 2244.27C196.428 2185.58 195.416 2120.09 221.653 2065.74C234.608 2038.93 254.352 2014.8 281.456 1996.87C309.442 1978.36 343.246 1966.51 381.207 1962.29C435.562 1956.28 495.66 1964.32 552.94 1965.32C601.772 1966.17 648.592 1961.57 688.592 1943.95C735.421 1923.13 765.829 1887.16 787.413 1849.29C810.006 1809.74 824.339 1766.43 839.902 1720.75C855.465 1675.06 874.104 1626.04 900.15 1587.91M58.0387 3200.29C134.478 3121.9 213.33 3022.89 238.661 2924.59C261.301 2836.76 275.087 2753.9 283.894 2666.68C301.681 2641.97 319.04 2612.22 323.236 2575.18C329.047 2523.49 307.381 2467.19 283.986 2420.18C259.253 2370.39 233.119 2326.16 215.073 2277.68C212.894 2271.8 210.888 2265.73 208.849 2259.73C189.303 2200.64 187.697 2134.9 210.586 2078.29C221.986 2050.19 242.355 2025.46 269.309 2006.67C297.283 1987.18 331.332 1974.38 369.927 1969.73C424.94 1963.04 486.168 1971.13 544.397 1972.19C594.104 1973.07 641.691 1968.53 682.125 1950.13C729.496 1928.49 759.272 1890.74 779.73 1851.42C801.09 1810.45 813.943 1765.88 828.802 1719.19C843.693 1672.42 862.577 1622.45 890.455 1584.58M53.8322 3200.58C127.086 3121.78 207.159 3025.41 234.163 2929.34C257.844 2844.96 274.39 2766.47 285.568 2683.09C305.237 2658.94 324.388 2629.36 329.176 2591.77C335.835 2539.57 312.739 2482.3 287.404 2435.06C260.709 2385.3 231.977 2341.53 211.563 2292.99C209.054 2287.06 206.759 2281.03 204.465 2275.01C182.063 2215.57 176.294 2148.01 199.511 2090.67C211.14 2062.05 230.243 2035.97 257.078 2016.25C284.967 1995.75 319.41 1982.07 358.597 1976.88C414.375 1969.47 476.701 1977.68 535.879 1978.8C586.46 1979.7 634.847 1975.16 675.684 1956.06C723.555 1933.49 752.633 1894.12 772.072 1853.29C792.166 1810.98 803.538 1765.15 817.758 1717.3C831.946 1669.52 851.106 1618.52 880.817 1580.92M49.6587 3200.79C119.652 3121.55 200.913 3027.89 229.59 2934.05C254.346 2853.05 273.693 2779.04 287.168 2699.48C308.72 2675.88 329.661 2646.45 335.083 2608.44C342.697 2555.69 318.064 2497.48 290.683 2450.06C262.024 2400.33 230.695 2357.01 207.988 2308.45C205.19 2302.57 202.639 2296.52 200.122 2290.4C174.972 2230.56 166.716 2162.01 188.477 2103.15C199.444 2073.63 218.173 2046.59 244.964 2025.97C272.841 2004.5 307.529 1989.86 347.35 1984.25C403.86 1976.18 467.209 1984.49 527.476 1985.55C578.932 1986.48 628.161 1982.04 669.432 1962.16C717.878 1938.69 745.325 1897.2 764.604 1855.33C784.505 1812.06 793.356 1764.52 806.798 1715.62C820.314 1666.76 839.645 1614.78 871.262 1577.48M45.4847 3201C112.251 3121.24 194.453 3030.46 225.05 2938.69C250.954 2861.09 272.955 2791.5 288.8 2715.79C312.234 2692.74 334.892 2663.45 341.055 2624.96C349.517 2571.7 323.528 2512.54 294.101 2464.94C263.404 2415.21 229.585 2372.31 204.477 2323.76C201.424 2317.85 198.543 2311.75 195.737 2305.69C167.732 2245.48 157.097 2175.9 177.401 2115.53C187.631 2085.07 206.134 2057.14 232.807 2035.59C260.6 2013.11 295.647 1997.66 336.093 1991.43C393.336 1982.72 457.741 1991.04 518.957 1992.16C571.287 1993.12 621.316 1988.68 662.99 1968.09C711.904 1943.77 739.652 1900.99 756.945 1857.21C774.647 1812.1 782.983 1763.72 795.721 1713.81C808.458 1663.9 828.141 1610.92 861.516 1573.86M41.3858 3201.25C104.892 3121.04 173.041 3026.36 220.552 2943.43C259.847 2874.83 272.333 2804.1 290.441 2732.28C315.684 2709.75 340.206 2680.65 347.004 2641.74C356.347 2587.89 328.895 2527.83 297.528 2480.01C264.869 2430.3 228.526 2387.89 201.051 2339.29C197.667 2333.32 194.572 2327.3 191.436 2321.18C160.575 2260.62 147.594 2189.93 166.41 2128.12C175.977 2096.75 194.106 2067.87 220.66 2045.38C248.442 2021.93 283.808 2005.56 324.888 1998.9C382.864 1989.54 448.399 1997.91 510.563 1999.09C563.768 2000.08 614.598 1995.63 656.673 1974.33C706.088 1949.08 733.245 1904.65 749.305 1859.44C765.848 1812.95 772.597 1763.35 784.695 1712.28C796.761 1661.28 816.689 1607.36 851.896 1570.56M37.2123 3201.46C97.4587 3120.81 166.002 3028.24 216.012 2948.07C256.44 2883.31 271.594 2816.56 292.074 2748.59C319.2 2726.62 345.512 2697.68 352.902 2658.23C363.094 2603.86 334.286 2542.87 300.872 2494.86C266.249 2445.18 227.31 2403.23 197.467 2354.56C193.794 2348.65 190.402 2342.5 186.977 2336.43C153.261 2275.51 137.827 2203.76 155.26 2140.46C164.164 2108.19 181.952 2078.28 208.43 2054.97C236.126 2030.51 271.812 2013.22 313.558 2006.06C372.192 1996.01 438.857 2004.43 502.003 2005.6C556.083 2006.61 607.754 2002.27 650.19 1980.15C700.179 1954.01 726.639 1907.95 741.605 1861.21C756.956 1813.4 762.183 1762.44 773.578 1710.36C784.972 1658.28 805.144 1603.4 842.184 1566.87M33.0384 3201.68C90.0249 3120.57 158.781 3030.13 211.439 2952.78C252.926 2891.83 270.897 2829.12 293.674 2764.98C322.649 2743.63 350.785 2714.78 358.809 2674.89C369.956 2619.98 339.644 2557.98 304.225 2509.89C267.671 2460.16 226.102 2418.74 193.965 2370.05C190.037 2364.12 186.356 2358.02 182.675 2351.93C146.104 2290.65 128.291 2217.86 144.267 2153.05C152.435 2119.84 169.923 2089.01 196.357 2064.79C224.041 2039.36 260.046 2021.15 302.353 2013.53C361.718 2002.83 429.44 2011.27 493.609 2012.53C548.637 2013.6 601.034 2009.22 643.84 1986.47C694.297 1959.47 720.199 1911.67 734.039 1863.47C748.156 1814.25 751.902 1762.02 762.593 1708.93C773.283 1655.84 793.733 1599.94 832.604 1563.68M28.8647 3201.89C82.5912 3120.34 151.592 3031.94 206.899 2957.42C249.264 2900.29 270.159 2841.58 295.306 2781.29C326.164 2760.49 356.016 2731.77 364.781 2691.42C376.776 2635.98 345.034 2573.01 307.676 2524.7C269.234 2475.03 225.025 2433.97 190.488 2385.29C186.304 2379.33 182.26 2373.26 178.356 2367.06C138.929 2305.42 118.663 2231.57 133.257 2165.28C140.762 2131.17 157.876 2099.38 184.192 2074.23C211.791 2047.79 248.189 2028.7 291.055 2020.61C351.186 2009.18 419.931 2017.72 485.049 2019.03C540.952 2020.14 594.116 2015.82 637.431 1992.33C688.463 1964.43 713.699 1914.93 726.413 1865.27C739.371 1814.67 741.53 1761.22 751.475 1707.01C761.494 1652.84 782.188 1595.98 822.817 1559.96M24.6907 3202.11C75.1573 3120.11 144.255 3033.69 202.358 2962.06C245.634 2908.67 269.495 2854.07 296.938 2797.6C329.604 2777.32 361.322 2748.79 370.646 2707.98C383.522 2651.96 350.424 2588.04 310.987 2539.62C270.581 2489.98 223.776 2449.38 186.945 2400.68C182.398 2394.73 178.131 2388.56 173.938 2382.42C131.656 2320.42 109.011 2245.53 122.149 2177.73C128.916 2142.68 145.731 2109.97 172.003 2083.92C199.59 2056.5 236.201 2036.53 279.766 2027.87C340.629 2015.79 410.504 2024.38 476.604 2025.68C533.381 2026.81 587.42 2022.52 631.063 1998.29C682.595 1969.46 707.209 1918.37 718.829 1867.18C730.628 1815.19 731.232 1760.45 740.505 1705.16C749.853 1649.9 770.792 1592.09 813.253 1556.33M20.5174 3202.32C67.7241 3119.88 136.844 3035.41 197.786 2966.77C241.93 2917.02 268.724 2866.61 298.538 2813.98C333.087 2794.26 366.52 2765.86 376.586 2724.57C390.31 2668.04 355.782 2603.15 314.299 2554.55C271.962 2504.86 222.601 2464.82 183.328 2416.03C178.525 2410.06 173.97 2403.94 169.447 2397.75C124.384 2335.42 99.2108 2259.43 110.967 2190.15C117.039 2154.27 133.619 2120.48 159.74 2093.58C187.242 2065.15 224.246 2044.3 268.371 2035.17C329.966 2022.44 400.897 2031.04 468.02 2032.44C525.672 2033.6 580.478 2029.38 624.556 2004.36C676.63 1974.72 700.611 1921.85 710.998 1869.24C721.638 1815.87 720.688 1759.83 729.256 1703.53C737.825 1647.23 759.116 1588.43 803.41 1552.94M16.3434 3202.54C60.3229 3119.57 129.316 3036.98 193.246 2971.41C238.152 2925.34 268.059 2879.1 300.17 2830.29C336.601 2811.13 371.826 2782.88 382.525 2741.17C397.13 2684.05 361.247 2618.22 317.717 2569.43C273.45 2519.7 221.459 2480.19 179.892 2431.37C174.834 2425.38 169.915 2419.28 165.211 2413.09C117.292 2350.41 89.7402 2273.39 100.04 2202.59C105.375 2165.77 121.655 2131.06 147.658 2103.22C175.149 2073.83 212.472 2052.05 257.263 2042.42C319.591 2029.04 391.545 2037.73 459.65 2039.11C518.176 2040.3 573.783 2036.07 618.263 2010.36C670.837 1979.78 694.195 1925.32 703.488 1871.18C712.969 1816.42 710.431 1759.17 718.329 1701.78C726.226 1644.39 747.761 1584.64 793.855 1549.49M12.2444 3202.78C52.964 3119.37 121.822 3038.49 188.748 2976.16C234.374 2933.66 267.363 2891.67 301.812 2846.78C340.126 2828.17 377.141 2800.09 388.507 2757.87C404.034 2700.27 366.646 2633.43 321.144 2584.49C274.914 2534.79 220.358 2495.67 176.391 2446.86C171.044 2440.93 165.903 2434.72 160.868 2428.48C110.061 2365.51 80.0887 2287.35 89.006 2215.07C93.6786 2177.35 109.585 2141.69 135.544 2112.95C162.949 2082.54 200.632 2059.95 246.016 2049.79C309.043 2035.83 382.161 2044.5 451.247 2045.87C510.648 2047.08 567.129 2042.88 611.937 2016.42C665.086 1984.95 687.779 1928.79 695.946 1873.19C704.268 1817.05 700.175 1758.5 707.368 1700.1C714.561 1641.7 736.374 1580.93 784.226 1546.01M8.07017 3203C45.5298 3119.14 114.137 3039.82 184.207 2980.79C230.512 2941.77 266.698 2904.16 303.444 2863.09C343.566 2845 382.297 2817.05 394.372 2774.43C410.599 2716.26 372.036 2648.47 324.488 2599.34C276.327 2549.6 219.141 2511 172.88 2462.17C167.203 2456.18 161.773 2450.03 156.483 2443.77C102.821 2380.44 70.3621 2301.29 77.9301 2227.45C81.8656 2188.79 97.4724 2152.2 123.313 2122.53C150.707 2091.15 188.709 2067.64 234.686 2056.94C298.445 2042.33 372.618 2051.02 442.654 2052.44C502.929 2053.69 560.178 2049.56 605.42 2022.32C659.038 1989.99 681.172 1932.09 688.213 1875.03C695.343 1817.58 689.654 1757.64 696.175 1698.15C702.697 1638.67 724.755 1576.94 774.438 1542.29M3.8973 3203.21C38.1713 3118.94 106.412 3041.05 179.635 2985.51C226.651 2949.87 265.928 2916.69 305.119 2879.51C347.09 2862.05 387.645 2834.18 400.386 2791.06C417.569 2732.33 377.502 2663.54 327.948 2614.33C277.857 2564.54 218.041 2526.48 169.413 2477.59C163.447 2471.65 157.761 2465.48 152.141 2459.16C95.6229 2395.47 60.7111 2315.25 66.897 2239.93C70.1372 2200.44 85.4026 2162.82 111.199 2132.25C138.508 2099.87 176.829 2075.44 223.439 2064.31C287.931 2049.05 363.16 2057.75 434.219 2059.27C495.369 2060.54 553.418 2056.4 599.137 2028.49C653.329 1995.27 674.798 1935.67 680.68 1877.23C686.684 1818.31 679.374 1757.22 685.225 1696.65C691.075 1636.09 713.377 1573.41 764.893 1539.02M-0.276969 3203.42C30.7371 3118.71 98.6016 3042.06 175.095 2990.15C222.78 2957.8 260.533 2922.46 306.75 2895.82C347.483 2872.35 392.95 2851.21 406.325 2807.66C424.356 2748.41 382.966 2678.6 331.333 2629.29C279.279 2579.53 216.898 2541.85 165.944 2493.01C159.722 2487.04 153.706 2480.81 147.872 2474.58C88.4654 2410.6 51.133 2329.25 55.9368 2252.45C58.4399 2212.02 73.3641 2173.37 99.1582 2142C126.382 2108.61 165.063 2083.37 212.299 2071.63C277.523 2055.72 353.808 2064.44 425.89 2066.05C487.915 2067.35 546.805 2063.31 592.885 2034.59C647.577 2000.44 668.456 1939.17 673.211 1879.27C677.982 1818.94 669.192 1756.59 674.338 1695.01C679.484 1633.43 702.063 1569.73 755.411 1535.61M-4.45066 3203.64C23.3035 3118.47 90.8906 3042.86 170.555 2994.78C218.868 2965.62 261.159 2936.04 308.383 2912.13C351.702 2890.23 398.181 2868.2 412.223 2824.15C431.135 2764.31 388.282 2693.6 334.71 2644.06C280.725 2594.26 215.789 2557.15 162.392 2508.21C155.915 2502.22 149.61 2496.05 143.445 2489.75C81.1838 2425.42 41.4724 2343.03 44.8198 2264.72C46.586 2223.35 61.2846 2183.81 86.8861 2151.48C114.024 2117.08 153.099 2090.96 200.894 2078.75C266.85 2062.19 344.266 2070.96 417.255 2072.53C480.155 2073.85 539.845 2069.81 586.294 2040.45C641.529 2005.48 661.743 1942.51 665.33 1881.05C668.941 1819.33 658.596 1755.69 663.071 1693.02C667.546 1630.36 690.37 1565.7 745.476 1531.82M-8.6244 3203.85C15.9026 3118.17 83.0636 3043.51 165.982 2999.5C215.031 2973.47 261.612 2949.81 309.982 2928.52C355.898 2908.36 403.454 2885.3 418.13 2840.81C437.89 2780.47 393.714 2708.75 338.063 2659.1C282.147 2609.24 214.581 2572.66 158.891 2523.7C152.05 2517.73 145.49 2511.53 139.102 2505.14C74.0268 2440.56 31.7878 2357.07 33.7116 2277.17C34.7822 2234.97 49.1396 2194.4 74.6972 2161.17C101.824 2125.8 141.144 2098.72 189.647 2086.12C256.294 2068.8 334.807 2077.7 408.82 2079.35C472.593 2080.7 533.084 2076.66 579.935 2046.59C635.67 2010.69 655.294 1946.06 657.755 1883.13C660.207 1820.03 648.275 1755.17 652.078 1691.42C655.881 1627.67 678.95 1562.07 735.888 1528.45M-12.8309 3204.14C8.43621 3118.01 75.2694 3044.09 161.409 3004.21C211.185 2981.14 261.819 2963.74 311.582 2944.9C359.953 2926.6 408.727 2902.4 424.07 2857.41C444.785 2796.51 399.245 2723.66 341.374 2674.02C283.593 2623.97 213.332 2588.07 155.273 2539.05C148.177 2533.06 141.254 2526.88 134.611 2520.47C66.5398 2455.64 21.9874 2370.97 22.529 2289.59C22.8627 2246.45 36.9203 2204.96 62.4339 2170.83C89.4752 2134.45 129.188 2106.48 178.284 2093.35C245.663 2075.37 325.2 2084.36 400.194 2086C464.884 2087.49 526.175 2083.44 573.386 2052.56C629.696 2015.76 648.762 1949.39 649.989 1885.05C651.357 1820.59 637.795 1754.41 640.82 1689.62C643.845 1624.82 667.191 1558.19 726.035 1524.87M-16.9299 3204.39C1.07723 3117.81 67.681 3044.41 156.911 3008.95C207.487 2988.88 261.885 2977.78 313.256 2961.32C364.092 2945.06 414.075 2919.53 430.051 2874.11C451.614 2812.7 404.644 2738.88 344.834 2689.01C285.09 2638.99 212.264 2603.48 151.88 2554.5C144.528 2548.49 137.349 2542.28 130.342 2535.89C59.4902 2470.74 12.3031 2385.01 11.5697 2302.1C11.1336 2258.1 24.9244 2215.62 50.3197 2180.55C77.3499 2143.19 117.382 2114.31 167.037 2100.71C235.149 2082.09 315.741 2091.1 391.791 2092.75C457.356 2094.27 519.447 2090.21 567.135 2058.66C623.913 2021.01 642.387 1952.97 642.488 1887.17C642.697 1821.33 627.581 1753.85 629.901 1688.05C632.254 1622.17 655.845 1554.58 716.522 1521.54M-21.1037 3204.6C-6.35645 3117.58 60.009 3044.51 152.371 3013.59C203.888 2996.4 261.696 2991.8 314.856 2977.7C368.016 2963.6 419.273 2936.59 435.883 2890.75C458.328 2828.75 409.895 2754.03 348.113 2704.01C286.331 2653.99 210.982 2618.96 148.23 2569.93C62.3658 2502.83 2.76677 2407.31 0.461432 2314.55C-1.8439 2221.79 58.1541 2135.3 155.749 2107.97C283.956 2072 456.914 2134.44 560.66 2064.66C618.013 2026.11 635.748 1956.34 634.797 1889.11C633.772 1821.86 617.143 1753.2 618.825 1686.23C620.507 1619.27 644.342 1550.73 706.777 1517.92" stroke="url(#paint1_linear_17_6)" stroke-opacity="0.6" stroke-width="0.5" stroke-miterlimit="10"/>
<defs>
<linearGradient id="paint0_linear_17_6" x1="1608.24" y1="177.988" x2="962.951" y2="1644.41" gradientUnits="userSpaceOnUse">
<stop stop-color="#2973FF"/>
<stop offset="0.48974" stop-color="#8846D3"/>
<stop offset="1" stop-color="#FF22AC"/>
</linearGradient>
<linearGradient id="paint1_linear_17_6" x1="301.35" y1="3001.71" x2="945.78" y2="1534.92" gradientUnits="userSpaceOnUse">
<stop stop-color="#2973FF"/>
<stop offset="0.48974" stop-color="#8846D3"/>
<stop offset="1" stop-color="#FF22AC"/>
</linearGradient>
</defs>
</svg>
