<svg width="100" height="112" viewBox="0 0 100 112" fill="none" xmlns="http://www.w3.org/2000/svg">
<path d="M50 111.689C48.141 111.704 46.3139 111.205 44.7213 110.246L24.8197 98.6066C17.3692 94.4398 11.1507 88.3802 6.79266 81.04C2.43461 73.6998 0.0914509 65.3393 0 56.8033V25C0.000881683 22.8569 0.658055 20.7654 1.88312 19.007C3.10819 17.2485 4.84239 15.9073 6.85246 15.1639L46.3934 0.639358C48.7222 -0.213119 51.2777 -0.213119 53.6066 0.639358L93.1475 15.1639C95.1576 15.9073 96.8918 17.2485 98.1169 19.007C99.3419 20.7654 99.9991 22.8569 100 25V56.8033C99.9085 65.3393 97.5654 73.6998 93.2073 81.04C88.8493 88.3802 82.6308 94.4398 75.1803 98.6066L55.2787 110.246C53.6861 111.205 51.859 111.704 50 111.689ZM50 8.21313C49.7398 8.16577 49.4733 8.16577 49.2131 8.21313L9.67213 22.8033C9.22674 22.9682 8.84456 23.2692 8.57974 23.6634C8.31493 24.0577 8.18093 24.5253 8.19672 25V56.8033C8.2918 63.9058 10.2612 70.8573 13.9056 76.9543C17.5499 83.0513 22.7401 88.0776 28.9508 91.5246L48.8525 103.197C49.2044 103.389 49.599 103.49 50 103.49C50.401 103.49 50.7956 103.389 51.1475 103.197L71.0492 91.5246C77.2599 88.0776 82.4501 83.0513 86.0944 76.9543C89.7388 70.8573 91.7082 63.9058 91.8033 56.8033V25C91.8053 24.5364 91.6649 24.0834 91.401 23.7022C91.1372 23.321 90.7625 23.0301 90.3279 22.8689L50.7869 8.34428C50.5348 8.2529 50.2681 8.20845 50 8.21313Z" fill="white"/>
<path d="M46.3935 72.0493C45.426 72.043 44.4894 71.7077 43.7377 71.0985L29.7377 59.2952C28.903 58.5952 28.3804 57.5923 28.2851 56.507C28.1898 55.4218 28.5295 54.3431 29.2295 53.5083C29.9295 52.6736 30.9325 52.151 32.0177 52.0557C33.103 51.9604 34.1817 52.3002 35.0164 53.0001L46 62.246L64.7541 41.5903C65.4846 40.7816 66.5063 40.2962 67.5947 40.2409C68.683 40.1855 69.7487 40.5648 70.5574 41.2952C71.3661 42.0257 71.8515 43.0474 71.9069 44.1358C71.9622 45.2241 71.5829 46.2898 70.8525 47.0985L49.6066 70.7051C49.1998 71.1478 48.702 71.4972 48.1473 71.7293C47.5927 71.9613 46.9943 72.0705 46.3935 72.0493Z" fill="white"/>
</svg>
