<svg width="100" height="101" viewBox="0 0 100 101" fill="none" xmlns="http://www.w3.org/2000/svg">
<path d="M97.8555 87.4839L67.8797 57.5081C71.7878 51.6395 74.0692 44.5988 74.0692 37.0345C74.0692 16.6137 57.4555 3.05176e-05 37.0345 3.05176e-05C16.6135 3.05176e-05 0 16.6137 0 37.0345C0 57.4553 16.6137 74.069 37.0345 74.069C44.5988 74.069 51.6393 71.7877 57.508 67.8795L87.4839 97.8554C88.8691 99.2406 90.7108 100.003 92.6698 100.003C94.6289 100.003 96.4703 99.2406 97.8555 97.8552C100.715 94.9961 100.715 90.3434 97.8555 87.4839ZM37.0345 70.1626C18.7676 70.1626 3.90639 55.3016 3.90639 37.0345C3.90639 18.7677 18.7676 3.90642 37.0345 3.90642C55.3013 3.90642 70.1626 18.7677 70.1626 37.0345C70.1626 55.3014 55.3013 70.1626 37.0345 70.1626ZM95.0931 95.0932C94.4459 95.7405 93.5851 96.0971 92.6698 96.0971C91.7542 96.0971 90.8936 95.7407 90.2463 95.0932L60.674 65.5209C62.4344 64.0575 64.0575 62.4344 65.5208 60.674L95.0931 90.2461C96.4293 91.5827 96.4293 93.757 95.0931 95.0932Z" fill="white"/>
<path d="M37.0347 8.82397C21.4793 8.82397 8.82413 21.4791 8.82413 37.0345C8.82413 38.1131 9.69877 38.9877 10.7773 38.9877C11.8559 38.9877 12.7305 38.1133 12.7305 37.0345C12.7305 23.6331 23.6334 12.7304 37.0347 12.7304C38.1132 12.7304 38.9879 11.8557 38.9879 10.7772C38.9879 9.69861 38.1132 8.82397 37.0347 8.82397Z" fill="white"/>
<path d="M62.5063 24.8948C59.7282 19.0763 54.9941 14.3419 49.1757 11.5637C48.2023 11.0987 47.0362 11.5114 46.5715 12.4848C46.1069 13.4581 46.5192 14.6242 47.4927 15.089C52.5069 17.4833 56.5869 21.5633 58.981 26.5779C59.3161 27.2797 60.0158 27.6899 60.7449 27.6899C61.0269 27.6899 61.3135 27.6285 61.5851 27.499C62.5586 27.0342 62.9709 25.8683 62.5063 24.8948Z" fill="white"/>
</svg>
