<svg width="100" height="100" viewBox="0 0 100 100" fill="none" xmlns="http://www.w3.org/2000/svg">
<path d="M50.0603 0H49.9397C22.3605 0 0 22.3605 0 49.9397C0 77.5188 22.3605 99.8793 49.9397 99.8793H50.0603C77.6395 99.8793 100 77.5188 100 49.9397C100 22.3605 77.6395 0 50.0603 0ZM50.0603 95.8841H49.9397C24.5662 95.8841 3.99517 75.3132 3.99517 49.9397C3.99517 24.5662 24.5662 3.99517 49.9397 3.99517H50.0603C75.4339 3.99517 96.0048 24.5662 96.0048 49.9397C96.0048 75.3132 75.4339 95.8841 50.0603 95.8841Z" fill="white"/>
<path d="M65.9785 29.7224C61.8585 30.7628 57.0892 31.4369 52.1868 31.5951L52.0786 31.5993V47.9503H68.309C68.205 41.4332 67.3601 35.1658 65.8578 29.1564L65.9785 29.7224Z" fill="white"/>
<path d="M52.0538 8.28162V27.9454C56.7065 27.7997 61.1428 27.1796 65.4085 26.1267L64.9715 26.2183C61.8253 16.272 56.9271 9.74651 52.0538 8.28162Z" fill="white"/>
<path d="M35.0325 26.1934C38.8862 27.1589 43.3558 27.7914 47.9419 27.9413L48.046 27.9454V8.2359C43.1727 9.65086 38.1995 16.1846 35.0325 26.1934Z" fill="white"/>
<path d="M79.9742 20.5004C74.6182 15.0361 67.7848 11.041 60.1191 9.15574L59.8319 9.09747C63.7647 13.5796 66.7527 18.998 68.4215 24.9658L68.4881 25.253C72.9078 23.8963 76.7157 22.2857 80.3072 20.3339L79.9742 20.5004Z" fill="white"/>
<path d="M71.9796 47.9502H91.9804C91.5351 38.52 88.0269 29.9886 82.4378 23.2426L82.4919 23.3133C78.788 25.4025 74.489 27.2586 69.9862 28.661L69.5076 28.79C70.9766 34.5123 71.8714 41.1002 71.9754 47.8836V47.9544L71.9796 47.9502Z" fill="white"/>
<path d="M31.6909 47.9506H48.0627V31.5995C43.0147 31.4497 38.1997 30.763 33.5761 29.6019L34.0422 29.7018C32.6397 35.1494 31.7866 41.4293 31.6909 47.8881V47.9506Z" fill="white"/>
<path d="M68.3091 51.9331H52.0538V68.2467C57.0644 68.3924 61.8461 69.0666 66.4406 70.2193L65.9828 70.1236C67.3644 64.6927 68.2051 58.4377 68.3091 52.0039V51.9373V51.9331Z" fill="white"/>
<path d="M34.0463 70.1571C38.208 69.0959 43.0188 68.4092 47.967 68.2636L48.0669 68.2594V51.9458H31.6909C31.7866 58.4546 32.6397 64.7179 34.1629 70.7148L34.0422 70.1571H34.0463Z" fill="white"/>
<path d="M48.071 91.6229V71.9092C43.3683 72.0632 38.8946 72.6916 34.5873 73.7528L35.0326 73.6612C38.2037 83.6741 43.1727 90.2204 48.071 91.6229Z" fill="white"/>
<path d="M59.8318 90.7822C67.793 88.8262 74.6347 84.8186 79.9949 79.3585L80.0032 79.3502C76.7447 77.5648 72.9451 75.9501 68.9749 74.7183L68.5254 74.5976C66.7775 80.865 63.7812 86.2918 59.7943 90.828L59.8359 90.7822H59.8318Z" fill="white"/>
<path d="M40.143 9.14724C32.2484 11.1157 25.4691 15.0984 20.1505 20.521L20.1422 20.5293C23.3675 22.2939 27.1254 23.8919 31.054 25.1154L31.4993 25.2361C33.243 19.0103 36.2269 13.621 40.1805 9.10562L40.1389 9.1514L40.143 9.14724Z" fill="white"/>
<path d="M69.5078 71.0934C74.4976 72.6124 78.8091 74.4726 82.8583 76.7407L82.5212 76.5659C88.0562 69.8907 91.5603 61.3593 92.0014 52.0248L92.0056 51.929H72.0048C71.8716 58.7916 70.9685 65.3795 69.3788 71.6968L69.5078 71.0934Z" fill="white"/>
<path d="M52.0538 71.9088V91.5933C56.9271 90.1284 61.8253 83.603 64.9715 73.6358C61.1428 72.6745 56.7065 72.0503 52.1495 71.9088L52.0538 71.9046V71.9088Z" fill="white"/>
<path d="M30.5173 28.7613C25.5775 27.2506 21.3035 25.3987 17.2917 23.1389L17.6204 23.3096C12.0854 29.9848 8.58134 38.5162 8.14021 47.8508L8.13605 47.9465H28.037C28.1327 41.0923 29.0316 34.4919 30.6422 28.1745L30.5173 28.7572V28.7613Z" fill="white"/>
<path d="M28.0162 51.9331H8.11523C8.56053 61.3634 12.0688 69.8947 17.6579 76.6408L17.6038 76.57C21.2785 74.4933 25.5525 72.6456 30.0221 71.2473L30.4965 71.1183C29.0358 65.396 28.141 58.7956 28.0203 52.0122V51.9331H28.0162Z" fill="white"/>
<path d="M20.1216 79.3502C25.4527 84.7853 32.2403 88.768 39.8561 90.6698L40.1432 90.7323C36.223 86.2585 33.2349 80.8567 31.5578 74.9097L31.487 74.6184C27.1048 75.9876 23.3385 77.5898 19.7762 79.5208L20.1216 79.3502Z" fill="white"/>
</svg>
